<?xml version="1.0" encoding="UTF-8" standalone="no"?>
<svg
   xmlns:dc="http://purl.org/dc/elements/1.1/"
   xmlns:cc="http://creativecommons.org/ns#"
   xmlns:rdf="http://www.w3.org/1999/02/22-rdf-syntax-ns#"
   xmlns:svg="http://www.w3.org/2000/svg"
   xmlns="http://www.w3.org/2000/svg"
   xmlns:sodipodi="http://sodipodi.sourceforge.net/DTD/sodipodi-0.dtd"
   xmlns:inkscape="http://www.inkscape.org/namespaces/inkscape"
   id="emoji"
   viewBox="0 0 72 72"
   version="1.1"
   sodipodi:docname="earth_emoji.svg"
   inkscape:version="1.0.2 (e86c870879, 2021-01-15, custom)">
  <metadata
     id="metadata48">
    <rdf:RDF>
      <cc:Work
         rdf:about="">
        <dc:format>image/svg+xml</dc:format>
        <dc:type
           rdf:resource="http://purl.org/dc/dcmitype/StillImage" />
      </cc:Work>
    </rdf:RDF>
  </metadata>
  <defs
     id="defs46" />
  <sodipodi:namedview
     pagecolor="#ffffff"
     bordercolor="#666666"
     borderopacity="1"
     objecttolerance="10"
     gridtolerance="10"
     guidetolerance="10"
     inkscape:pageopacity="0"
     inkscape:pageshadow="2"
     inkscape:window-width="1920"
     inkscape:window-height="1057"
     id="namedview44"
     showgrid="false"
     inkscape:zoom="11.819444"
     inkscape:cx="19.713278"
     inkscape:cy="36"
     inkscape:window-x="-8"
     inkscape:window-y="-8"
     inkscape:window-maximized="1"
     inkscape:current-layer="emoji" />
  <g
     id="color">
    <circle
       cx="36"
       cy="36"
       r="28"
       fill="#92D3F5"
       stroke="none"
       stroke-linecap="round"
       stroke-linejoin="round"
       stroke-miterlimit="10"
       stroke-width="2"
       id="circle30" />
    <path
       fill="#B1CC33"
       stroke="none"
       stroke-linecap="round"
       stroke-linejoin="round"
       stroke-miterlimit="10"
       stroke-width="2"
       d="M49.4394,11.4301C48.9012,12.3361,47.7952,13.5726,47,14c-1.2452,0.6692-1.904,0.2672-3,1c-1.2689,0.8484-1.2095,1.9379-2,2 c-0.8018,0.063-0.6879-1.993-1-3c-0.4521-1.4585-0.2307-1.5267-1-2c-1.0834-0.6665-3.2121-1.0502-5,0 c-0.7094,0.4167-0.7506,0.682-3,4c-1.7096,2.5218-2.188,3.1093-2,4c0.1989,0.9419,0.0427,1.7474,1,2 c1.1873,0.3132,1.3661-0.2722,2-1c1.3282-1.525,2.3581-3.7828,3-4c0.5713-0.1933,2.0656,1.3495,2,3c-0.0463,1.1654-0.852,1.922-2,3 c-0.7417,0.6965-2.875,1.5-6,2c-1.719,0.275-1.4083,0.8524-2.0625,1.5938c-0.8427,0.955-0.4615,2.1691-1.2812,3.3125 c-1.0252,1.43-3.4727,1.7917-3.6564,2.7188C22.8432,33.4154,24.9604,33.9845,26,34c0.8505,0.0127,1.0644-0.7721,3-2 c0.7408-0.47,1.75-1.2812,2.6875-1.25c0.5041,0.0168,1.8289,0.2852,2.3438,0.7188c0.5938,0.5-0.1562,1.8438-0.4062,3.1562 s-2.8976,1.8646-3.8542,2.0208c-1.5737,0.257-4.1439-0.5228-5.6042,0.9375c-1,1-1.1155,1.766-1.1667,3.4167 c-0.0129,0.4172,0.937,3.0323,2,4c1.1442,1.0416,2.2939-0.8356,4,0c1.7456,0.8549,2.493,2.7288,3,4 c0.5078,1.2731,0.1756,1.1679,1,5c0.4146,1.9271,0.3191,1.1194,1,4c0.5632,2.3826,0.5889,2.7678,1,3 c1.1732,0.6628,3.8997-0.8162,5-3c0.6895-1.3683,0.2111-1.9625,1-5c0.3928-1.5123,0.5892-2.2685,1-3 c1.7332-3.0861,4.8828-3.1256,5-5c0.0802-1.2824-1.3573-1.8515-1-3c0.3421-1.0997,1.8099-1.0603,2-2 c0.2579-1.2752-2.2492-2.316-2-3c0.2822-0.7746,4.0696-1.0098,6,1c0.6397,0.666,0.4982,0.9775,2,4c1.3839,2.7851,1.7637,3.0431,2,3 c0.4287-0.0782,0.3223-1.1355,1-3c0.3243-0.8922,1.0927-3.0062,2-3c0.6247,0.0043,0.7386,1.0097,2,2 c0.7103,0.5576,1.7908,0.8806,2.3474,1.0378C63.7747,40.0932,64,38.0729,64,36c0-10.6315-5.9252-19.8791-14.6535-24.6206"
       id="path32" />
  </g>
  <g
     id="hair" />
  <g
     id="skin" />
  <g
     id="skin-shadow" />
  <g
     id="line">
    <circle
       cx="36"
       cy="36"
       r="28"
       fill="none"
       stroke="#000000"
       stroke-linecap="round"
       stroke-linejoin="round"
       stroke-miterlimit="10"
       stroke-width="2"
       id="circle38" />
    <path
       fill="none"
       stroke="#000000"
       stroke-linecap="round"
       stroke-linejoin="round"
       stroke-miterlimit="10"
       stroke-width="2"
       d="M49.4394,11.4301C48.9012,12.3361,47.7952,13.5726,47,14c-1.2452,0.6692-1.904,0.2672-3,1c-1.2689,0.8484-1.2095,1.9379-2,2 c-0.8018,0.063-0.6879-1.993-1-3c-0.4521-1.4585-0.2307-1.5267-1-2c-1.0834-0.6665-3.2121-1.0502-5,0 c-0.7094,0.4167-0.7506,0.682-3,4c-1.7096,2.5218-2.188,3.1093-2,4c0.1989,0.9419,0.0427,1.7474,1,2 c1.1873,0.3132,1.3661-0.2722,2-1c1.3282-1.525,2.3581-3.7828,3-4c0.5713-0.1933,2.0656,1.3495,2,3c-0.0463,1.1654-0.852,1.922-2,3 c-0.7417,0.6965-2.875,1.5-6,2c-1.719,0.275-1.4083,0.8524-2.0625,1.5938c-0.8427,0.955-0.4615,2.1691-1.2812,3.3125 c-1.0252,1.43-3.4727,1.7917-3.6564,2.7188C22.8432,33.4154,24.9604,33.9845,26,34c0.8505,0.0127,1.0644-0.7721,3-2 c0.7408-0.47,1.75-1.2812,2.6875-1.25c0.5041,0.0168,1.8289,0.2852,2.3438,0.7188c0.5938,0.5-0.1562,1.8438-0.4062,3.1562 s-2.8976,1.8646-3.8542,2.0208c-1.5737,0.257-4.1439-0.5228-5.6042,0.9375c-1,1-1.1155,1.766-1.1667,3.4167 c-0.0129,0.4172,0.937,3.0323,2,4c1.1442,1.0416,2.2939-0.8356,4,0c1.7456,0.8549,2.493,2.7288,3,4 c0.5078,1.2731,0.1756,1.1679,1,5c0.4146,1.9271,0.3191,1.1194,1,4c0.5632,2.3826,0.5889,2.7678,1,3 c1.1732,0.6628,3.8997-0.8162,5-3c0.6895-1.3683,0.2111-1.9625,1-5c0.3928-1.5123,0.5892-2.2685,1-3 c1.7332-3.0861,4.8828-3.1256,5-5c0.0802-1.2824-1.3573-1.8515-1-3c0.3421-1.0997,1.8099-1.0603,2-2 c0.2579-1.2752-2.2492-2.316-2-3c0.2822-0.7746,4.0696-1.0098,6,1c0.6397,0.666,0.4982,0.9775,2,4c1.3839,2.7851,1.7637,3.0431,2,3 c0.4287-0.0782,0.3223-1.1355,1-3c0.3243-0.8922,1.0927-3.0062,2-3c0.6247,0.0043,0.7386,1.0097,2,2 c0.7103,0.5576,1.7908,0.8806,2.3474,1.0378C63.7747,40.0932,64,38.0729,64,36c0-10.6315-5.9252-19.8791-14.6535-24.6206"
       id="path40" />
  </g>
  <path
     style="fill:#00b4d8;fill-opacity:1;stroke-width:0.0846063"
     d="M 34.248948,62.897915 C 28.710582,62.52281 23.598646,60.540859 19.198643,57.062752 18.081553,56.179717 15.796006,53.897655 14.924419,52.795047 11.853109,48.909661 9.9542553,44.422819 9.2489051,39.384254 c -0.208698,-1.490804 -0.208698,-5.277704 0,-6.768508 0.7038424,-5.027794 2.6184879,-9.558678 5.6547099,-13.381506 0.829585,-1.044509 2.527401,-2.798648 3.582871,-3.70173 7.938935,-6.7927082 18.887931,-8.381801 28.522739,-4.139674 0.436348,0.192121 0.79336,0.395187 0.79336,0.451257 0,0.13269 -0.884706,0.969436 -1.280002,1.210613 -0.168865,0.103029 -0.739958,0.282787 -1.269095,0.399463 -1.213322,0.267541 -1.725415,0.517844 -2.441516,1.193377 l -0.570265,0.53796 -0.05686,-0.48582 c -0.10282,-0.878468 -0.575854,-2.481493 -0.851279,-2.884829 -0.479759,-0.702569 -1.722508,-1.28178 -3.1338,-1.460578 -1.595845,-0.202179 -3.416238,0.322862 -4.382874,1.264117 -0.484999,0.472264 -4.187574,5.954907 -4.562322,6.755727 -0.316485,0.676312 -0.371414,1.149492 -0.240901,2.075205 0.210415,1.492444 0.538691,2.073505 1.377481,2.438194 0.663948,0.288671 1.662545,0.287981 2.178696,-0.0015 0.53366,-0.299306 1.458574,-1.405718 2.638082,-3.155754 l 1.014983,-1.50593 0.151887,0.194531 c 0.543615,0.696245 0.704629,1.45239 0.437746,2.055722 -0.260907,0.589824 -1.589814,1.885038 -2.250851,2.193783 -0.898403,0.419611 -2.234827,0.809569 -3.960733,1.155713 -2.298715,0.461025 -2.459022,0.551001 -3.340672,1.87504 -0.630691,0.947154 -0.76929,1.254801 -0.956074,2.122176 -0.328086,1.523544 -0.54614,1.777079 -2.373108,2.759252 -1.167815,0.627815 -1.538836,0.916513 -1.77646,1.382294 -0.347704,0.681556 -0.145699,1.579267 0.459189,2.040637 0.703171,0.536335 2.136155,0.980279 3.233405,1.001723 0.863456,0.01687 1.200197,-0.12985 2.156378,-0.939575 0.838357,-0.709948 2.452486,-1.80381 3.097479,-2.099097 0.484593,-0.221854 0.638417,-0.218597 1.578105,0.03341 0.307646,0.08251 0.486486,0.175416 0.486486,0.25274 0,0.160742 -0.50445,1.957424 -0.619535,2.206578 -0.114825,0.248588 -1.073855,0.717187 -1.960958,0.95816 -0.576026,0.156472 -1.004531,0.19259 -2.876616,0.242471 -2.341247,0.06238 -2.512285,0.0905 -3.458766,0.568608 -0.806368,0.407331 -1.66384,1.46865 -2.002783,2.478906 -0.137915,0.411066 -0.194798,0.827692 -0.225259,1.649824 -0.03975,1.072964 -0.0341,1.118518 0.230903,1.86134 0.533894,1.496524 1.41017,3.018512 2.047767,3.556728 0.735952,0.62124 1.583609,0.709399 2.815894,0.29286 0.412993,-0.1396 0.848454,-0.253462 0.967692,-0.253025 0.119238,4.23e-4 0.411874,0.112682 0.650303,0.249433 1.229051,0.704926 2.32954,2.750884 2.658036,4.941653 0.241079,1.607778 0.547157,3.105402 0.9793,4.791669 0.208692,0.814336 0.545743,2.184959 0.749004,3.045828 0.20326,0.86087 0.44874,1.776579 0.545511,2.034908 0.396997,1.059782 1.383505,1.505647 2.716429,1.227725 1.779284,-0.370992 3.645931,-1.856335 4.52394,-3.599829 0.368185,-0.731117 0.426123,-0.971049 0.633645,-2.624026 0.257502,-2.051073 0.849819,-4.350918 1.383669,-5.372503 0.405582,-0.776129 1.431779,-1.751321 2.630836,-2.500076 1.894013,-1.182723 2.456497,-1.899364 2.453751,-3.126246 -0.0016,-0.704174 -0.184494,-1.205562 -0.741647,-2.032888 -0.365396,-0.542579 -0.334659,-0.635942 0.335617,-1.019434 1.049276,-0.600336 1.421347,-1.130808 1.41966,-2.024058 -0.0013,-0.690366 -0.210613,-1.144947 -0.855116,-1.857144 l -0.471113,-0.520597 0.455247,0.05283 c 0.891885,0.103498 1.393979,0.231351 1.978162,0.503722 0.993672,0.463292 1.206935,0.708391 1.81885,2.090361 1.010432,2.282001 2.306625,4.749841 2.769319,5.272544 0.432159,0.488209 0.703312,0.634548 1.175756,0.634548 0.930975,0 1.197629,-0.314658 1.593875,-1.880799 0.44865,-1.77327 1.30232,-3.926711 1.480555,-3.734807 0.03775,0.04064 0.264618,0.311805 0.504162,0.602589 0.502565,0.610069 1.395009,1.268254 2.098777,1.547864 0.26851,0.106681 0.500016,0.20255 0.514456,0.213042 0.0649,0.04715 -0.5505,1.96697 -0.974669,3.040595 -1.478842,3.743134 -3.484484,6.746891 -6.383663,9.560517 -4.709391,4.57042 -10.480862,7.122148 -17.119157,7.568856 -1.410711,0.09493 -1.913101,0.09441 -3.358573,-0.0035 z"
     id="path877" />
  <path
     style="fill:#27fb6b;fill-opacity:1;stroke-width:0.0846063"
     d="m 35.584436,60.040285 c -0.02465,-0.03989 -0.239477,-0.887009 -0.477389,-1.882491 -0.237911,-0.995482 -0.541931,-2.209733 -0.675598,-2.698335 -0.308962,-1.129366 -0.788335,-3.477968 -0.967063,-4.737955 -0.17425,-1.228414 -0.293301,-1.646952 -0.812934,-2.857977 -0.518394,-1.208134 -1.173128,-2.205469 -1.885058,-2.871444 -1.326567,-1.240939 -2.449727,-1.497296 -4.159895,-0.94948 l -0.837839,0.268383 -0.273409,-0.325661 c -0.36013,-0.428955 -0.970776,-1.603879 -1.257384,-2.419289 -0.219534,-0.624584 -0.225515,-0.685025 -0.13965,-1.411225 0.101466,-0.858146 0.274013,-1.258414 0.757029,-1.75613 0.567651,-0.584925 0.870663,-0.650101 3.107151,-0.66832 1.768273,-0.01441 2.027399,-0.03565 2.838043,-0.232729 2.05706,-0.500088 3.256742,-1.203686 3.652418,-2.142094 0.298584,-0.70814 0.766995,-2.550707 0.804043,-3.162824 0.03335,-0.551036 0.01177,-0.684654 -0.164012,-1.015276 -0.259251,-0.487628 -0.810287,-0.861727 -1.70222,-1.155638 -0.961569,-0.316856 -2.313496,-0.336548 -3.037301,-0.04424 -0.630177,0.254498 -2.797997,1.69889 -3.642421,2.426903 l -0.659206,0.568328 -0.440677,-0.05994 c -0.242372,-0.03297 -0.592968,-0.106367 -0.779102,-0.163109 l -0.338425,-0.103165 0.549941,-0.280044 c 1.434142,-0.730302 2.353074,-1.513018 2.765143,-2.355256 0.124288,-0.254036 0.331007,-0.901761 0.459375,-1.439389 0.135891,-0.569136 0.306609,-1.068527 0.408644,-1.195379 0.09639,-0.119829 0.294517,-0.420712 0.440292,-0.66863 0.145775,-0.247918 0.345404,-0.480793 0.443622,-0.517503 0.09822,-0.03671 0.876937,-0.20631 1.730488,-0.376893 1.747727,-0.349282 3.519432,-0.899578 4.433463,-1.377045 0.70902,-0.370374 1.981043,-1.54138 2.571808,-2.367567 0.998291,-1.396117 0.959425,-3.145481 -0.104479,-4.702558 -0.80885,-1.183794 -1.825304,-1.658295 -2.699472,-1.260169 -0.468125,0.2132 -0.836209,0.648952 -1.851372,2.191725 -1.137755,1.729078 -1.948246,2.726809 -2.215081,2.726809 -0.163783,0 -0.207542,-0.05549 -0.250198,-0.317274 -0.02843,-0.174501 -0.08476,-0.488602 -0.12516,-0.698002 -0.05766,-0.298845 -0.0413,-0.453518 0.07606,-0.71917 0.230028,-0.520662 3.792314,-5.79789 4.146641,-6.142899 0.826737,-0.804997 2.654523,-0.975136 3.943035,-0.367037 l 0.424277,0.200233 0.23172,0.912791 c 0.127445,0.502036 0.292046,1.312556 0.365779,1.801158 0.250462,1.659724 0.738997,2.299683 1.766792,2.314419 0.635942,0.0091 1.094418,-0.279754 1.59065,-1.002221 0.771184,-1.122769 1.030261,-1.297433 2.31322,-1.559525 1.316442,-0.268931 1.929676,-0.615807 2.99885,-1.696298 l 0.893473,-0.902931 0.710688,0.451205 c 1.707394,1.083999 3.206926,2.316765 4.78092,3.930399 2.171469,2.226154 3.644579,4.328014 4.985699,7.113684 1.291616,2.682844 2.041379,5.19117 2.47274,8.272537 0.211468,1.51059 0.208387,5.274629 -0.0056,6.810811 -0.08426,0.604935 -0.170619,1.128154 -0.191916,1.162708 -0.04714,0.07649 -0.646781,-0.221183 -1.023792,-0.508223 -0.151319,-0.115207 -0.480728,-0.480924 -0.73202,-0.812704 -0.632532,-0.835127 -0.783579,-0.980956 -1.212632,-1.170747 -0.290023,-0.128291 -0.468936,-0.15264 -0.793542,-0.107995 -1.136033,0.156244 -1.959338,1.293438 -2.872572,3.967748 l -0.31528,0.923267 -0.719237,-1.473208 c -0.395578,-0.810264 -0.822699,-1.720681 -0.949155,-2.023149 -0.668515,-1.59901 -1.098518,-2.188318 -2.062893,-2.827142 -1.216225,-0.805654 -2.279729,-1.099723 -3.985288,-1.101969 -1.097606,-0.0014 -1.280248,0.01967 -1.734431,0.200535 -0.944711,0.376199 -1.357076,1.041268 -1.142073,1.84195 0.09143,0.340491 0.240559,0.535729 0.924056,1.209775 1.165381,1.149266 1.125422,1.019024 0.437946,1.427446 -1.002899,0.595812 -1.447628,1.299911 -1.445894,2.289153 9.22e-4,0.524591 0.208816,1.049593 0.710809,1.79501 0.542483,0.80554 0.44987,0.950792 -1.352294,2.120922 -2.122383,1.378046 -3.18215,2.662789 -3.788771,4.593086 -0.538945,1.714954 -0.906227,3.434834 -1.073601,5.027379 -0.141132,1.342866 -0.437018,1.96234 -1.370779,2.869897 -0.576536,0.560356 -1.074258,0.895672 -1.653453,1.113933 -0.48047,0.181057 -0.742624,0.211983 -0.814271,0.09606 z"
     id="path879" />
</svg>
