<?xml version="1.0" encoding="UTF-8" standalone="no"?>
<svg
   xmlns:dc="http://purl.org/dc/elements/1.1/"
   xmlns:cc="http://creativecommons.org/ns#"
   xmlns:rdf="http://www.w3.org/1999/02/22-rdf-syntax-ns#"
   xmlns:svg="http://www.w3.org/2000/svg"
   xmlns="http://www.w3.org/2000/svg"
   xmlns:sodipodi="http://sodipodi.sourceforge.net/DTD/sodipodi-0.dtd"
   xmlns:inkscape="http://www.inkscape.org/namespaces/inkscape"
   width="210mm"
   height="297mm"
   viewBox="0 0 210 297"
   version="1.1"
   id="svg3520"
   inkscape:version="1.0.2 (e86c870879, 2021-01-15, custom)"
   sodipodi:docname="final_logo.svg">
  <defs
     id="defs3514" />
  <sodipodi:namedview
     id="base"
     pagecolor="#ffffff"
     bordercolor="#666666"
     borderopacity="1.0"
     inkscape:pageopacity="0.0"
     inkscape:pageshadow="2"
     inkscape:zoom="0.68230769"
     inkscape:cx="145.88978"
     inkscape:cy="509.1269"
     inkscape:document-units="mm"
     inkscape:current-layer="layer1"
     inkscape:document-rotation="0"
     showgrid="false"
     inkscape:window-width="1920"
     inkscape:window-height="1057"
     inkscape:window-x="-8"
     inkscape:window-y="-8"
     inkscape:window-maximized="1" />
  <metadata
     id="metadata3517">
    <rdf:RDF>
      <cc:Work
         rdf:about="">
        <dc:format>image/svg+xml</dc:format>
        <dc:type
           rdf:resource="http://purl.org/dc/dcmitype/StillImage" />
        <dc:title></dc:title>
      </cc:Work>
    </rdf:RDF>
  </metadata>
  <g
     inkscape:groupmode="layer"
     id="layer2"
     inkscape:label="bg" />
  <g
     inkscape:label="Layer 1"
     inkscape:groupmode="layer"
     id="layer1">
    <g
       id="g4199"
       transform="matrix(1.8821343,0,0,1.8821343,-104.6372,-152.94185)"
       inkscape:export-xdpi="96"
       inkscape:export-ydpi="96">
      <rect
         style="fill:#001c3a;fill-opacity:1;stroke-width:82.8036;stroke-linejoin:round;paint-order:stroke fill markers"
         id="rect4190"
         width="111.45739"
         height="110.77661"
         x="55.856091"
         y="103.92188" />
      <g
         id="g4179"
         transform="translate(11.257255,5.6758667)">
        <path
           style="fill:#26f96a;stroke-width:0.106241"
           d="m 98.426244,200.88074 c -13.657418,-0.58396 -26.351791,-6.64781 -35.110015,-16.77138 -6.280537,-7.25962 -10.062991,-15.88128 -11.162988,-25.44472 -0.237494,-2.06478 -0.317461,-6.00629 -0.163019,-8.03504 0.48141,-6.3238 1.958516,-11.78409 4.680897,-17.30343 2.329025,-4.72187 4.992612,-8.44852 8.800948,-12.31351 2.529824,-2.56747 4.780074,-4.41624 7.77506,-6.38789 11.41341,-7.51362 25.580587,-9.92672 38.953023,-6.63488 9.67251,2.38104 18.38133,7.64672 24.90036,15.05568 10.31352,11.72147 14.0867,27.66303 10.07768,42.57786 -4.93347,18.35406 -20.68759,32.07711 -39.93394,34.78554 -2.64194,0.37179 -6.42396,0.57413 -8.818006,0.47177 z"
           id="path4187" />
        <path
           style="fill:#00b3d4;stroke-width:0.106241"
           d="m 98.426244,200.88074 c -13.657418,-0.58396 -26.351791,-6.64781 -35.110015,-16.77138 -6.280537,-7.25962 -10.062991,-15.88128 -11.162988,-25.44472 -0.237494,-2.06478 -0.317461,-6.00629 -0.163019,-8.03504 0.48141,-6.3238 1.958516,-11.78409 4.680897,-17.30343 2.329025,-4.72187 4.992612,-8.44852 8.800948,-12.31351 2.529824,-2.56747 4.780074,-4.41624 7.77506,-6.38789 14.416031,-9.49029 32.950413,-10.7039 48.532383,-3.17784 2.07447,1.00197 3.1986,1.62572 5.11932,2.84059 1.22009,0.77172 4.56836,3.20538 4.56836,3.32048 0,0.0272 -0.0937,-0.009 -0.2082,-0.0806 -0.16535,-0.10326 -0.2911,-0.10108 -0.61089,0.0106 -0.89166,0.31138 -1.19548,0.67723 -1.31972,1.58916 -0.0705,0.51706 -0.0465,0.67489 0.17308,1.1397 0.14016,0.29674 0.33789,0.83824 0.4394,1.20334 0.2212,0.79562 0.14196,0.90266 -0.59849,0.8084 -0.26294,-0.0335 -0.91841,-0.0898 -1.45659,-0.12511 l -0.97851,-0.0642 -0.13127,0.28811 c -0.16897,0.37084 -0.0429,0.58096 0.50427,0.84039 0.52067,0.24688 0.76585,0.46286 0.96701,0.85187 0.13572,0.26246 0.13697,0.32669 0.009,0.45487 -0.1209,0.12089 -0.25167,0.12728 -0.68834,0.0336 -0.61828,-0.1326 -1.23984,-0.61051 -1.74058,-1.33831 -0.54108,-0.78643 -1.82313,-1.98602 -2.51884,-2.35683 -1.21288,-0.64645 -1.01128,-0.73043 1.40415,-0.58488 1.68236,0.10138 1.85483,0.0945 2.36788,-0.0939 0.56302,-0.20679 1.02334,-0.63488 1.14753,-1.06718 0.0379,-0.13179 0.18859,-0.56185 0.33495,-0.9557 0.25834,-0.69514 0.26113,-0.73109 0.0955,-1.2298 -0.19786,-0.59569 -0.6769,-1.10234 -1.2814,-1.35526 -1.96339,-0.82148 -5.17908,-1.24939 -9.16329,-1.21936 -0.89109,0.007 -1.62017,-0.0298 -1.62017,-0.081 0,-0.0513 0.0938,-0.17815 0.20848,-0.28193 0.11467,-0.10377 0.2624,-0.35204 0.3283,-0.55171 0.14414,-0.43675 -0.056,-0.82784 -0.51578,-1.00786 -0.57507,-0.22515 -1.61145,-0.29252 -2.18405,-0.14198 -1.19802,0.31499 -2.30665,0.94064 -3.27433,1.84788 -1.01393,0.95059 -2.67295,2.87823 -3.36604,3.91104 -0.59599,0.88814 -2.8121,5.29496 -3.46073,6.88184 -0.69704,1.70529 -1.27453,2.86257 -1.7495,3.50595 -0.21568,0.29216 -0.52395,0.75931 -0.68505,1.03811 -0.42317,0.73238 -0.96272,1.2268 -1.70346,1.56099 -0.357235,0.16116 -0.769042,0.4101 -0.915123,0.55319 -0.146082,0.14309 -0.55902,0.48304 -0.91764,0.75544 -0.771094,0.5857 -1.130981,0.99337 -1.464121,1.65851 -0.821532,1.64024 -1.059571,6.54217 -0.382168,7.86999 0.318533,0.62437 1.121039,1.08291 2.006081,1.14623 0.550722,0.0394 0.802012,0.008 1.075562,-0.13316 0.697039,-0.36046 1.768679,-1.21475 2.322419,-1.8514 0.30893,-0.35518 0.59504,-0.64579 0.63581,-0.64579 0.14814,0 0.7436,1.1271 0.81404,1.54082 0.20381,1.19701 0.9435,3.18786 1.44732,3.89541 0.18999,0.26681 0.24194,0.50176 0.26382,1.193 0.0541,1.71072 0.67237,2.59543 1.59978,2.28936 0.41694,-0.1376 0.67342,-0.55601 0.67342,-1.09857 0,-0.41387 0.2948,-0.70187 0.71844,-0.70187 0.56708,0 1.69906,-0.88298 1.74129,-1.35827 0.0331,-0.37289 0.10143,-3.17881 0.0918,-3.76967 -0.0141,-0.86241 0.27568,-1.46759 0.9135,-1.90759 0.86356,-0.59572 0.89094,-0.63992 0.8905,-1.43719 -4.2e-4,-0.75742 -0.26497,-1.40769 -0.5727,-1.40769 -0.0832,0 -0.41461,-0.251 -0.73649,-0.55777 -0.54301,-0.51752 -0.59067,-0.60255 -0.66058,-1.17849 -0.15243,-1.25564 0.0563,-2.0111 1.14689,-4.15054 0.46851,-0.91912 0.80018,-1.41927 1.21221,-1.82803 0.48373,-0.47987 0.56779,-0.62206 0.571,-0.96575 0.002,-0.22167 0.0721,-0.52255 0.1556,-0.66863 0.21634,-0.37845 0.19404,-1.00291 -0.0531,-1.48738 -0.29581,-0.57984 -0.26631,-0.91834 0.13876,-1.59175 0.38771,-0.64458 0.75268,-0.82815 1.67721,-0.84362 l 0.48796,-0.008 0.44165,0.74043 c 0.24291,0.40725 0.44165,0.86706 0.44165,1.02182 0,0.41951 -0.82105,2.16369 -1.23356,2.62049 -0.19803,0.21929 -0.36006,0.45232 -0.36006,0.51784 0,0.0655 -0.16582,0.48638 -0.36849,0.93525 -0.20267,0.44887 -0.39769,1.0764 -0.43337,1.39451 -0.061,0.54372 -0.0344,0.63566 0.444,1.53454 l 0.50887,0.95617 0.004,1.27268 0.004,1.27269 0.31787,0.15312 c 0.17482,0.0842 0.38142,0.21669 0.45911,0.29437 0.17108,0.17109 0.32777,0.17474 1.1424,0.0266 1.35105,-0.24564 3.59973,-1.1377 4.8187,-1.91161 l 0.85404,-0.54221 0.28198,0.22181 c 0.21849,0.17186 0.43343,0.22181 0.95449,0.22181 0.56482,0 0.69079,0.0342 0.78675,0.21348 0.0962,0.17973 0.0753,0.22831 -0.1322,0.30719 -0.28281,0.10753 -1.14323,0.96025 -1.14323,1.13301 0,0.32434 -0.53703,0.59003 -1.70863,0.84531 -2.45231,0.53434 -3.08004,0.82676 -3.48694,1.62434 l -0.20802,0.40775 0.2317,0.45841 c 0.13075,0.2587 0.40327,0.567 0.62552,0.70766 0.21661,0.13708 0.44269,0.34053 0.50241,0.4521 0.14921,0.27881 0.26149,1.31749 0.17826,1.64909 -0.0752,0.29979 -0.64607,0.66597 -0.75739,0.48585 -0.14261,-0.23075 -1.1848,-0.73914 -1.51715,-0.74009 -0.42174,-10e-4 -0.79315,0.33438 -1.0873,0.9824 -0.26673,0.58761 -0.2599,0.85687 0.0572,2.25502 0.36762,1.62071 0.35282,2.02749 -0.0982,2.69764 -0.19954,0.29651 -0.39375,0.68002 -0.43157,0.85224 -0.0398,0.18117 -0.29357,0.5234 -0.60217,0.81206 -0.47415,0.44351 -0.57381,0.49235 -0.89742,0.43984 -0.22938,-0.0372 -0.49605,-0.19904 -0.72089,-0.43744 -0.29532,-0.31314 -0.43133,-0.37837 -0.78891,-0.37837 -0.64469,0 -0.96437,0.16062 -1.66766,0.83787 -0.80824,0.77832 -1.58943,1.38314 -2.21534,1.71519 l -0.49031,0.2601 -0.73741,-0.73176 -0.73741,-0.73176 -0.54862,0.065 c -0.33421,0.0396 -0.8112,0.21182 -1.2205,0.44071 -0.36953,0.20666 -0.74736,0.37574 -0.83962,0.37574 -0.0923,0 -0.39037,-0.16994 -0.66249,-0.37765 -0.27211,-0.2077 -0.63045,-0.40479 -0.79632,-0.43796 -0.38057,-0.0761 -0.51544,-0.50485 -0.51627,-1.64113 -7.5e-4,-0.95857 0.18662,-1.55434 0.69312,-2.20446 0.20278,-0.26028 0.36869,-0.51825 0.36869,-0.57327 0,-0.055 -0.11953,-0.24208 -0.26563,-0.41571 -0.37088,-0.44076 -0.42221,-0.75121 -0.22428,-1.35636 0.21538,-0.65847 0.21482,-0.82032 -0.003,-0.94236 -0.28307,-0.15842 -0.52664,-0.0302 -0.99259,0.52235 -0.36066,0.42772 -0.50129,0.52089 -0.78622,0.52089 -0.44832,0 -0.763929,0.33408 -0.903344,0.95621 -0.19164,0.85518 -0.04005,3.51269 0.269451,4.72374 0.149883,0.58649 0.296433,1.17147 0.325653,1.29995 0.037,0.16266 -0.0357,0.31591 -0.239329,0.50465 -0.245745,0.22774 -0.393953,0.27104 -0.927837,0.27104 -0.772778,0 -2.649454,0.66757 -3.636357,1.29353 -0.350596,0.22237 -0.696907,0.40476 -0.769582,0.40532 -0.201615,0.002 -0.770914,0.84819 -0.770914,1.14649 0,0.48135 -1.826361,1.99315 -2.985112,2.47098 -0.983782,0.40568 -1.307356,0.71176 -1.718324,1.62542 -0.308048,0.68484 -0.360915,0.7416 -0.919254,0.98685 -0.325824,0.14311 -0.745349,0.42568 -0.932276,0.62793 -0.249277,0.26971 -0.429063,0.36772 -0.67451,0.36772 -0.485084,0 -0.967356,-0.26555 -1.258108,-0.69275 -0.278236,-0.40882 -0.672681,-0.57055 -0.910372,-0.37329 -0.119067,0.0988 -0.139238,0.31548 -0.0926,0.9946 0.05447,0.79305 0.03863,0.89466 -0.182816,1.17312 -0.222723,0.28006 -0.284008,0.29994 -0.753211,0.24437 -0.280919,-0.0333 -0.810798,-0.18791 -1.177509,-0.34364 -0.366711,-0.15572 -0.926781,-0.37689 -1.2446,-0.49147 -1.036263,-0.37359 -1.611257,-0.0546 -1.450085,0.80455 0.08417,0.44865 0.310038,0.62262 1.57077,1.20983 0.559579,0.26064 1.135683,0.6284 1.460813,0.93252 0.516613,0.48323 0.536849,0.52377 0.536849,1.07548 0,0.59028 0.335253,1.44002 0.681516,1.72739 0.276594,0.22955 0.375925,0.84627 0.283553,1.76049 -0.102361,1.01309 -0.91488,4.20513 -1.100395,4.32298 -0.312525,0.19855 -2.014761,-0.0169 -3.039086,-0.38466 -0.505984,-0.18166 -3.822913,-1.02541 -4.838803,-1.23088 -0.346205,-0.07 -0.817963,-0.22557 -1.04835,-0.34565 -0.61866,-0.32246 -1.857381,-0.32001 -2.29637,0.005 -0.179582,0.13277 -0.474635,0.23656 -0.672477,0.23656 -0.193878,0 -0.45892,0.0745 -0.588981,0.16564 -0.223467,0.15652 -0.23323,0.21934 -0.177495,1.14209 0.04341,0.71869 0.01576,1.11668 -0.104738,1.50766 -0.09004,0.29216 -0.164234,0.91558 -0.164867,1.38537 -0.0021,1.58278 -0.423999,2.63974 -1.594035,3.99374 -0.80176,0.92782 -0.965778,1.33504 -0.700686,1.73962 0.09281,0.14165 0.168751,0.32823 0.168751,0.41462 0,0.0864 0.102496,0.22887 0.227768,0.31661 0.202648,0.14194 0.221397,0.2298 0.169996,0.79666 -0.0323,0.35624 -0.179557,0.89456 -0.33401,1.22104 -0.15193,0.32116 -0.276236,0.62728 -0.276236,0.68028 0,0.16359 0.377469,0.448 0.594589,0.448 0.113308,0 0.388176,0.12379 0.610818,0.27507 0.36219,0.24612 0.469257,0.26759 1.017084,0.20401 0.688913,-0.0799 1.124437,0.0535 1.666633,0.51074 0.261896,0.22086 0.356716,0.41614 0.459185,0.94571 0.24881,1.28586 0.597276,1.66404 1.27464,1.3833 1.511495,-0.62644 2.028096,-0.79015 2.650879,-0.84005 0.6066,-0.0486 0.784047,-0.0185 1.287862,0.21876 0.448232,0.21106 0.752335,0.27538 1.305685,0.27617 0.883944,10e-4 1.419514,-0.24254 1.846556,-0.84063 0.311301,-0.436 0.635932,-0.6457 0.999569,-0.6457 0.496121,0 0.913497,-0.29396 1.240787,-0.87388 0.354026,-0.6273 0.887944,-1.1447 1.181249,-1.1447 0.481766,0 0.575674,-0.53867 0.160919,-0.92305 -0.257964,-0.23907 -0.27191,-0.29872 -0.201533,-0.862 0.101918,-0.81572 0.21719,-1.00737 1.245842,-2.07135 0.750847,-0.77664 1.025399,-0.98167 1.801417,-1.34533 0.545858,-0.2558 1.07224,-0.42904 1.303582,-0.42904 0.442207,0 0.844176,-0.18331 1.586455,-0.72347 0.658659,-0.47931 0.938173,-1.04595 0.78665,-1.59472 -0.05808,-0.21036 -0.08508,-0.66621 -0.06,-1.013 0.0411,-0.5682 0.08549,-0.66707 0.449038,-1.00024 0.377027,-0.34552 0.43787,-0.36564 0.92972,-0.30738 0.289461,0.0343 0.964918,0.26439 1.501017,0.51135 1.639643,0.75533 2.541227,0.66947 3.471723,-0.33065 0.424105,-0.45583 0.555942,-0.52946 1.161258,-0.64855 0.525445,-0.10338 0.779969,-0.22212 1.104227,-0.51515 0.378414,-0.34198 0.482097,-0.38069 1.016678,-0.37964 0.32741,6.4e-4 0.71482,0.0374 0.8609,0.0818 0.2522,0.0765 0.35465,-0.0548 2.03063,-2.60407 0.97077,-1.47657 1.89476,-2.91029 2.05332,-3.18604 0.22686,-0.39456 0.36009,-0.51307 0.62538,-0.55628 0.18542,-0.0302 1.24548,-0.17605 2.35569,-0.32409 3.11131,-0.4149 4.87952,-0.69164 4.94661,-0.77419 0.0336,-0.0413 0.34152,-0.55322 0.68432,-1.13755 1.99335,-3.39788 4.11207,-6.09175 6.62148,-8.41893 1.76608,-1.63784 2.48393,-2.24172 3.63062,-3.05426 1.05189,-0.74536 3.84363,-2.17878 4.24341,-2.17878 0.15248,0 1.22545,0.90584 3.17275,2.67855 6.38418,5.81182 6.60766,6.026 6.60758,6.3325 -9e-5,0.28783 -1.11169,2.67804 -1.6197,3.48272 l -0.27489,0.43541 0.52295,-0.0951 c 0.28762,-0.0523 0.71993,-0.16454 0.96069,-0.24949 0.44521,-0.15708 0.94223,-0.20547 0.94223,-0.0917 0,0.16959 -0.61323,0.88025 -1.0301,1.19376 -0.34358,0.25841 -0.46108,0.4155 -0.43704,0.58433 0.0304,0.21327 0.0844,0.22849 0.70652,0.19932 0.81546,-0.0382 0.9731,0.0684 0.9731,0.6584 0,0.52846 0.24093,0.91368 0.57143,0.91368 0.34272,0 0.95951,-0.49352 1.47882,-1.18328 0.5485,-0.72852 1.36762,-1.44608 1.93379,-1.69403 0.73437,-0.32162 1.29655,-0.34757 2.2379,-0.1033 0.47122,0.12228 1.19346,0.23338 1.60497,0.2469 l 0.74821,0.0246 -0.20182,0.74368 c -0.60862,2.24271 -2.41713,7.01495 -2.56671,6.77293 -0.18053,-0.29211 -1.30603,-0.2072 -2.77743,0.20954 -1.16151,0.32897 -1.50335,0.55585 -2.92956,1.94436 -0.73406,0.71466 -1.47754,1.37326 -1.65218,1.46358 -0.26217,0.13557 -1.92183,0.39306 -2.53351,0.39306 -0.09,0 -0.26026,0.0967 -0.37846,0.21491 -0.1707,0.1707 -0.19179,0.25813 -0.10251,0.42497 0.0888,0.16593 0.22319,0.21004 0.63988,0.21004 0.29011,0 0.52747,0.0413 0.52747,0.0917 0,0.20002 -1.04671,1.05445 -1.6474,1.34478 -0.5553,0.26839 -0.77273,0.31082 -1.69919,0.33159 -0.58433,0.0131 -1.12058,0.027 -1.19167,0.0309 -0.20338,0.0112 -0.85712,0.71434 -1.09179,1.17434 -0.39771,0.77957 -0.20643,1.25753 0.44983,1.12403 0.78608,-0.15991 0.87693,-0.13881 0.88412,0.20539 0.004,0.1753 0.0641,0.55777 0.13433,0.84993 0.0702,0.29216 0.11503,0.79302 0.0996,1.11302 l -0.0281,0.5818 0.62788,0.37271 c 0.48591,0.28843 0.67306,0.47485 0.82771,0.82447 0.25352,0.57312 0.49586,0.71027 1.00609,0.56938 0.45529,-0.12571 0.51374,-0.0994 0.73642,0.33119 l 0.16872,0.32627 0.92511,-0.89077 c 0.50881,-0.48992 0.20481,-0.17364 -0.67556,0.70285 -0.88037,0.87649 -2.14982,2.05131 -2.821,2.61073 -1.5123,1.26045 -3.18216,2.54669 -2.98686,2.30067 0.0802,-0.10102 0.1041,-0.18663 0.0531,-0.19024 -0.051,-0.004 -0.50924,-0.0156 -1.01835,-0.0266 -0.76137,-0.0164 -0.95904,0.0134 -1.11373,0.16792 -0.28585,0.28561 -0.0639,0.55552 0.45781,0.55671 0.78437,0.002 0.75387,0.14228 -0.16435,0.75703 -3.91467,2.6209 -9.27539,4.99404 -14.3532,6.35405 -4.218,1.12972 -10.07167,1.77203 -14.445154,1.58504 z m 12.586186,-10.23383 c 0.13453,-0.14866 0.16826,-0.29395 0.11714,-0.50465 -0.32454,-1.33753 -0.323,-1.36813 0.0975,-1.94095 0.39476,-0.53778 0.51878,-0.62062 0.63867,-0.42663 0.19974,0.32319 0.94432,-0.13449 1.2393,-0.76178 0.0915,-0.19456 0.25202,-0.53303 0.35674,-0.75216 0.11403,-0.2386 0.26582,-0.3984 0.37844,-0.3984 0.23822,0 0.62843,-0.48834 0.62843,-0.78647 0,-0.24341 -0.47943,-1.01963 -0.62976,-1.01963 -0.05,0 -0.1233,0.13148 -0.16289,0.29217 -0.11842,0.48057 -0.74686,1.51997 -1.3837,2.28857 -0.75033,0.90556 -1.84288,1.80596 -2.87676,2.37081 l -0.79858,0.43629 0.67726,0.44126 c 0.3725,0.24269 0.7891,0.56029 0.92579,0.70579 0.29942,0.31872 0.5392,0.3356 0.79243,0.0558 z m 13.82001,-0.9509 c 0.0555,-0.0535 0.21557,-0.11324 0.35569,-0.1328 0.38608,-0.0539 0.51298,-0.33238 0.34173,-0.74998 -0.29086,-0.70928 -0.27623,-0.90018 0.0832,-1.08607 0.19893,-0.10287 0.32956,-0.25316 0.32956,-0.37914 0,-0.31977 -0.87245,-0.88654 -1.7903,-1.16303 l -0.8126,-0.24479 0.37184,-0.10286 c 0.54441,-0.15059 1.31637,-0.0253 2.09796,0.34041 1.07419,0.50268 1.30175,0.41685 1.30175,-0.49102 0,-0.70772 -0.17128,-1.0882 -0.52285,-1.16147 -0.15068,-0.0314 -0.39347,-0.12922 -0.53956,-0.21738 -0.14608,-0.0882 -0.39346,-0.21386 -0.54974,-0.27935 -0.20097,-0.0842 -0.30379,-0.22382 -0.35129,-0.47697 -0.0369,-0.19686 -0.24371,-0.55336 -0.45951,-0.79223 l -0.39237,-0.4343 -0.0736,0.41408 c -0.0405,0.22775 -0.0797,0.77265 -0.0872,1.21089 -0.007,0.43825 -0.0461,0.87875 -0.0859,0.97891 -0.0644,0.16228 -0.68195,0.66193 -1.81615,1.4694 -0.54558,0.38842 -0.53236,0.56421 0.0884,1.17526 0.47038,0.46301 0.54005,0.58634 0.54005,0.95595 0,0.78299 0.45827,1.29418 0.82839,0.92405 0.0988,-0.0988 0.19256,-0.0763 0.41966,0.10034 0.31707,0.2467 0.56382,0.29521 0.72272,0.1421 z m -16.6553,-1.09759 c 0.29728,-0.41485 0.33212,-0.51548 0.19652,-0.56752 -0.22664,-0.087 -1.39524,0.9181 -1.20911,1.03991 0.29786,0.19493 0.6532,0.0292 1.01259,-0.47239 z m -8.426831,-2.76264 c 0.202231,-0.483 0.258091,-0.51603 0.585901,-0.34651 0.25136,0.12998 0.31944,0.12863 0.51774,-0.0103 0.20315,-0.1423 0.22832,-0.25948 0.22832,-1.06304 0,-0.49672 0.0523,-1.22309 0.11623,-1.61415 0.10278,-0.62872 0.092,-0.77253 -0.0931,-1.24224 -0.26106,-0.66242 -0.5074,-0.72606 -1.05699,-0.27304 -0.282369,0.23275 -0.507202,0.32616 -0.785078,0.32616 -0.530807,0 -0.601507,0.23626 -0.235491,0.78694 0.31292,0.4708 0.375581,1.20734 0.152352,1.79082 -0.06177,0.16146 -0.159415,0.58602 -0.216978,0.94345 -0.122966,0.76355 -0.02134,1.04715 0.375237,1.04715 0.201069,0 0.303101,-0.0855 0.411857,-0.34528 z m 16.415401,-3.76367 c 0.002,-0.0864 -0.12602,-0.0701 -0.41538,0.0531 -0.4168,0.17746 -0.41749,0.17875 -0.21248,0.39737 0.11312,0.12063 0.20955,0.28796 0.21428,0.37184 0.01,0.16979 0.40917,-0.62473 0.41358,-0.82233 z m -2.90226,0.40954 c 0.10638,-0.17035 -0.15882,-0.4465 -2.2191,-2.31074 -2.83475,-2.56502 -2.7377,-2.46571 -2.73768,-2.80132 1e-5,-0.2723 -0.52888,-1.60318 -0.63454,-1.59671 -0.0995,0.006 -3.92293,1.96017 -3.94295,2.01514 -0.0106,0.0292 0.38995,0.45263 0.8902,0.94091 l 0.90955,0.88779 0.36063,-0.27506 c 0.44486,-0.33931 1.90412,-1.02243 2.18409,-1.02243 0.11948,0 1.2036,0.9119 2.58331,2.17295 1.30758,1.19512 2.40178,2.17519 2.43155,2.17794 0.0298,0.003 0.10849,-0.0821 0.17494,-0.18847 z m 11.857,-1.36249 c 0.10289,-0.029 0.37705,-0.33247 0.60924,-0.67439 0.36076,-0.53124 0.51127,-0.65632 1.0347,-0.85983 0.6104,-0.23732 0.8719,-0.25574 2.73735,-0.19284 0.52972,0.0179 0.78748,-0.0442 1.5253,-0.36716 1.10551,-0.48394 2.60232,-1.47928 2.76652,-1.83966 0.16461,-0.3613 0.0409,-0.49399 -0.66893,-0.71725 -0.3141,-0.0988 -0.76432,-0.34502 -1.00049,-0.54718 -1.01767,-0.87109 -1.16151,-1.71096 -0.51875,-3.029 0.3494,-0.71646 0.39301,-0.89669 0.39301,-1.62406 v -0.81817 l -0.65895,0.72101 c -1.61413,1.76618 -3.71095,3.6839 -5.57,5.09424 -0.69502,0.52728 -1.21186,0.99793 -1.24406,1.1329 -0.0303,0.12699 -0.0849,0.94802 -0.12139,1.82451 -0.0365,0.87649 -0.0896,1.70541 -0.11813,1.84206 -0.0481,0.23065 -0.0268,0.2434 0.29784,0.17799 0.19231,-0.0388 0.43385,-0.0942 0.53674,-0.12317 z m -24.54531,-0.75479 c 0.0898,-0.10226 0.19123,-0.44887 0.22543,-0.77025 0.0342,-0.32138 0.0928,-0.82522 0.13019,-1.11965 0.0545,-0.42912 0.0325,-0.56478 -0.11088,-0.68378 -0.15469,-0.12838 -0.22981,-0.12102 -0.55561,0.0544 -0.584787,0.31493 -0.732751,0.73343 -0.58859,1.66478 0.149588,0.96643 0.50483,1.3039 0.89946,0.85446 z m 27.94107,-13.60275 c 0.81711,-0.40259 1.42511,-1.03179 1.85707,-1.92183 0.2489,-0.51286 0.29048,-0.73324 0.29354,-1.5559 0.003,-0.87219 -0.0278,-1.02208 -0.34496,-1.66637 -0.58103,-1.18022 -1.60087,-1.94278 -2.9544,-2.20907 -1.64877,-0.32438 -3.48817,0.63508 -4.27019,2.2274 -0.2569,0.52308 -0.28829,0.70495 -0.28484,1.65028 0.005,1.26676 0.19578,1.78314 0.96417,2.60461 0.92974,0.99396 1.6377,1.28075 3.07191,1.24438 0.84213,-0.0214 1.04532,-0.0669 1.6677,-0.3735 z m -47.484779,-7.83435 c 0.220304,-0.086 0.576251,-0.15638 0.790994,-0.15638 0.277725,0 0.475376,-0.0814 0.684656,-0.28188 0.336444,-0.32234 0.746501,-0.35443 1.243672,-0.0973 0.258592,0.13372 0.707208,0.16661 2.266578,0.16613 2.083903,-6.4e-4 2.593454,-0.0813 3.14546,-0.49796 0.461466,-0.34832 0.431892,-0.6857 -0.06904,-0.78756 -0.61428,-0.12491 -0.600414,-0.23624 0.110993,-0.89114 0.783569,-0.72134 0.925847,-0.93814 0.930935,-1.41854 0.005,-0.47356 -0.323775,-0.91052 -0.840793,-1.11739 -0.526631,-0.21071 -0.682167,-0.50819 -0.853552,-1.63249 -0.118337,-0.7763 -0.198616,-0.97274 -0.716371,-1.75298 -0.670447,-1.01034 -0.744871,-1.17433 -0.935064,-2.06032 -0.07679,-0.35773 -0.292004,-0.95228 -0.478252,-1.32124 -0.436229,-0.86416 -0.415311,-1.57154 0.06435,-2.17606 0.511858,-0.64511 0.748909,-1.03579 0.890761,-1.46807 0.123133,-0.37523 0.115298,-0.42923 -0.09248,-0.63744 -0.189265,-0.18967 -0.389983,-0.23632 -1.207264,-0.28061 -0.89702,-0.0486 -0.982979,-0.0722 -1.012314,-0.27771 -0.02321,-0.16264 0.166063,-0.40614 0.686122,-0.88268 0.597281,-0.5473 0.699096,-0.68833 0.604827,-0.83781 -0.237041,-0.37587 -1.772562,-0.52264 -2.042026,-0.19518 -0.05508,0.0669 -0.493032,0.88662 -0.973237,1.82154 -0.480205,0.93492 -0.938836,1.79416 -1.019179,1.90942 -0.278545,0.39959 -0.183683,0.96997 0.239161,1.43801 0.353555,0.39134 0.379375,0.46308 0.313943,0.87228 -0.03921,0.24523 -0.165516,0.65886 -0.280672,0.91919 -0.115156,0.26033 -0.181328,0.56169 -0.147051,0.66968 0.06587,0.20753 0.448633,0.4392 0.90649,0.54866 0.523196,0.12508 0.83619,0.4673 0.822389,0.89918 -0.0069,0.21611 0.02539,0.78768 0.07177,1.27015 0.0738,0.76777 0.0606,0.90343 -0.105753,1.08725 -0.118372,0.1308 -0.274628,0.19031 -0.414207,0.15776 -0.124828,-0.0291 -0.412415,0.0552 -0.649095,0.19023 -0.35656,0.20347 -0.453428,0.33614 -0.601792,0.82424 -0.09726,0.31995 -0.207016,0.76115 -0.243913,0.98044 -0.05688,0.33806 -0.159274,0.4596 -0.673101,0.79896 -0.79485,0.52496 -0.848182,0.81269 -0.239926,1.29444 0.73169,0.57951 0.553198,1.16866 -0.499728,1.64944 -0.620021,0.28312 -1.406855,0.94645 -1.406855,1.18604 0,0.0725 0.09818,0.20054 0.218172,0.28459 0.23806,0.16675 0.749935,0.10003 1.510395,-0.19686 z m -5.505473,-4.51023 c 0.150747,-0.0573 0.739512,-0.13471 1.308369,-0.17199 1.382214,-0.0906 1.78716,-0.2749 2.228993,-1.01453 0.1972,-0.33011 0.391806,-0.84817 0.454641,-1.21027 0.256589,-1.47872 0.314158,-1.6242 0.81064,-2.04858 0.508482,-0.43464 0.822338,-1.10855 0.72819,-1.56356 -0.02974,-0.14373 -0.07926,-0.38233 -0.110043,-0.53022 -0.08565,-0.41149 -0.629463,-0.68641 -1.358706,-0.68688 -0.722916,-4.2e-4 -0.927996,0.0887 -1.52485,0.66308 -0.433558,0.41722 -0.458117,0.42587 -1.168651,0.41146 -0.750808,-0.0152 -1.408033,0.21614 -1.708516,0.60147 -0.306784,0.39342 -0.07254,1.21417 0.419088,1.4684 0.535053,0.27669 0.340378,0.7435 -0.60228,1.44422 -0.828339,0.61574 -1.387904,1.49581 -1.275745,2.00646 0.130311,0.5933 1.049704,0.91577 1.79887,0.63094 z m 0.8422,-29.8008 c 0.416222,-0.081 0.98401,-0.17725 1.261753,-0.21391 0.57361,-0.0757 1.323626,-0.58025 1.545142,-1.03943 0.07579,-0.15709 0.143433,-0.56128 0.150328,-0.89819 0.01001,-0.48909 -0.05511,-0.74995 -0.323054,-1.29404 -0.184574,-0.37481 -0.415235,-0.76948 -0.512578,-0.87705 -0.204271,-0.22571 -1.189552,-0.5344 -2.465532,-0.77244 -1.212162,-0.22614 -1.464496,-0.21307 -1.769216,0.0917 -0.141548,0.14155 -0.34929,0.28654 -0.461651,0.3222 -0.278829,0.0885 -0.444645,-0.39803 -0.336748,-0.98808 0.11089,-0.60641 -0.03244,-1.29579 -0.317372,-1.52652 -0.287716,-0.23298 -0.672185,-0.24444 -0.890081,-0.0266 -0.08978,0.0898 -0.327815,0.232 -0.528978,0.31605 -0.201163,0.0841 -0.464732,0.27865 -0.58571,0.43245 -0.265821,0.33794 -0.191193,0.528 0.391056,0.9959 0.219722,0.17658 0.484759,0.46539 0.58897,0.6418 0.168868,0.28587 0.171413,0.32769 0.0234,0.38449 -0.09134,0.035 -0.355796,-0.0122 -0.587671,-0.10496 -0.231875,-0.0928 -0.494725,-0.14062 -0.58411,-0.10632 -0.229336,0.088 -0.201739,0.46227 0.05417,0.73467 0.119179,0.12686 0.244461,0.4018 0.278405,0.61096 0.05787,0.35659 0.03836,0.39006 -0.312693,0.53674 -0.6717,0.28066 -0.610009,0.90702 0.118313,1.20125 0.217724,0.088 0.755392,0.53638 1.217759,1.01562 l 0.827906,0.85812 1.230715,-0.0736 c 0.676893,-0.0405 1.57126,-0.13984 1.98748,-0.22083 z m 60.676692,59.75873 c 0.10576,-0.11687 0.2162,-0.21249 0.24541,-0.21249 0.0292,0 -0.0334,0.0956 -0.13917,0.21249 -0.10576,0.11686 -0.2162,0.21248 -0.24542,0.21248 -0.0292,0 0.0334,-0.0956 0.13918,-0.21248 z m 0.63744,-0.74369 c 0.10577,-0.11687 0.2162,-0.21248 0.24542,-0.21248 0.0292,0 -0.0334,0.0956 -0.13918,0.21248 -0.10576,0.11686 -0.21619,0.21248 -0.24541,0.21248 -0.0292,0 0.0334,-0.0956 0.13917,-0.21248 z m 0.79681,-0.99628 c 0,-0.0221 0.0837,-0.10573 0.18592,-0.18592 0.16851,-0.13215 0.17227,-0.1284 0.0401,0.0401 -0.13879,0.17697 -0.22604,0.23325 -0.22604,0.14581 z m 0.42496,-0.53121 c 0,-0.0221 0.0837,-0.10572 0.18593,-0.18592 0.1685,-0.13215 0.17226,-0.12839 0.0401,0.0401 -0.13879,0.17697 -0.22604,0.23325 -0.22604,0.14581 z m 0.31873,-0.42496 c 0,-0.0221 0.0837,-0.10573 0.18592,-0.18592 0.1685,-0.13215 0.17226,-0.1284 0.0401,0.0401 -0.13879,0.17697 -0.22603,0.23325 -0.22603,0.14581 z m 1.08954,-16.99019 c -0.42034,-0.18101 -0.78986,-0.39585 -0.82116,-0.47741 -0.0313,-0.0816 0.0987,-0.32965 0.28888,-0.55131 0.19018,-0.22165 0.82925,-0.97014 1.42016,-1.66329 1.78264,-2.09112 2.57496,-2.74072 3.26171,-2.67421 0.24631,0.0239 0.34698,0.0919 0.36957,0.2497 0.0429,0.30004 -0.54868,1.08698 -0.84924,1.1296 -0.16365,0.0232 -0.25605,0.11828 -0.28007,0.28821 -0.0475,0.3358 0.13396,0.43339 0.80943,0.43535 0.72841,0.002 0.78291,0.1521 0.35603,0.9798 -0.18304,0.35491 -0.3328,0.74746 -0.3328,0.87233 0,0.35276 -0.2976,0.69928 -0.60056,0.69928 -0.42591,0 -1.4087,0.31497 -2.16442,0.69366 l -0.69327,0.3474 z m 7.63061,-2.7925 c 0.005,-0.12376 0.0303,-0.14894 0.0642,-0.0642 0.0307,0.0767 0.0269,0.16833 -0.008,0.20363 -0.0353,0.0353 -0.0604,-0.0274 -0.0558,-0.13944 z m 0.10624,-0.5312 c 0.005,-0.12377 0.0303,-0.14894 0.0642,-0.0642 0.0307,0.0767 0.0269,0.16832 -0.008,0.20363 -0.0353,0.0353 -0.0604,-0.0274 -0.0558,-0.13944 z m 0.10624,-0.74369 c 0.005,-0.12377 0.0303,-0.14894 0.0642,-0.0642 0.0307,0.0767 0.0269,0.16833 -0.008,0.20363 -0.0353,0.0353 -0.0604,-0.0275 -0.0558,-0.13944 z m 0.10624,-0.74369 c 0.005,-0.12376 0.0303,-0.14894 0.0642,-0.0642 0.0307,0.0767 0.0269,0.16833 -0.008,0.20363 -0.0353,0.0353 -0.0604,-0.0274 -0.0558,-0.13944 z m -10.96386,-1.2926 c -0.49775,-0.45285 -2.16864,-1.97017 -3.71309,-3.37183 -3.89772,-3.53735 -4.0546,-3.691 -3.97648,-3.89459 0.0407,-0.10607 0.60559,-0.3593 1.46722,-0.65773 2.98001,-1.03214 4.62254,-1.35779 6.9727,-1.38241 l 1.53451,-0.0161 0.095,0.42496 c 0.13401,0.5994 0.0151,3.82277 -0.19005,5.15269 -0.15014,0.97324 -0.57843,2.93645 -0.90971,4.16996 -0.0589,0.21912 -0.16732,0.3984 -0.24105,0.3984 -0.0737,0 -0.5413,-0.37051 -1.03906,-0.82337 z m 11.07849,0.50465 c 0,-0.14608 0.0241,-0.20584 0.0536,-0.1328 0.0295,0.073 0.0295,0.19256 0,0.2656 -0.0295,0.073 -0.0536,0.0133 -0.0536,-0.1328 z m 0.10624,-0.95617 c 0,-0.14608 0.0241,-0.20584 0.0536,-0.1328 0.0295,0.073 0.0295,0.19256 0,0.2656 -0.0295,0.073 -0.0536,0.0133 -0.0536,-0.1328 z m 0.11626,-1.32801 c 0.001,-0.23373 0.0229,-0.31684 0.0483,-0.18469 0.0254,0.13216 0.0244,0.32339 -0.002,0.42497 -0.0266,0.10157 -0.0474,-0.007 -0.0462,-0.24028 z m 0.12137,-3.08099 c 2.1e-4,-0.81806 0.0168,-1.13867 0.0371,-0.71248 0.0202,0.42619 0.0201,1.09551 -3.2e-4,1.48737 -0.0204,0.39187 -0.0369,0.0432 -0.0367,-0.77489 z m -0.12352,-3.13411 c 0,-0.20452 0.0219,-0.28818 0.0486,-0.18592 0.0267,0.10225 0.0267,0.26958 0,0.37184 -0.0267,0.10226 -0.0486,0.0186 -0.0486,-0.18592 z m -0.11411,-1.27489 c 0,-0.14609 0.0241,-0.20585 0.0536,-0.13281 0.0295,0.0731 0.0295,0.19257 0,0.26561 -0.0295,0.073 -0.0536,0.0133 -0.0536,-0.1328 z m -0.10624,-0.95617 c 0,-0.14608 0.0241,-0.20584 0.0536,-0.1328 0.0295,0.073 0.0295,0.19256 0,0.2656 -0.0295,0.073 -0.0536,0.0133 -0.0536,-0.1328 z m -0.11463,-0.9119 c 0.005,-0.12377 0.0303,-0.14894 0.0642,-0.0642 0.0307,0.0767 0.0269,0.16832 -0.008,0.20363 -0.0353,0.0353 -0.0604,-0.0275 -0.0558,-0.13944 z m -0.10624,-0.74369 c 0.005,-0.12377 0.0303,-0.14894 0.0642,-0.0642 0.0307,0.0767 0.0269,0.16833 -0.008,0.20363 -0.0353,0.0353 -0.0604,-0.0274 -0.0558,-0.13944 z m -0.10624,-0.63745 c 0.005,-0.12376 0.0303,-0.14894 0.0642,-0.0642 0.0307,0.0767 0.0269,0.16833 -0.008,0.20363 -0.0353,0.0353 -0.0604,-0.0274 -0.0558,-0.13944 z m -0.21248,-1.16865 c 0.005,-0.12376 0.0303,-0.14894 0.0642,-0.0642 0.0307,0.0767 0.0269,0.16833 -0.008,0.20363 -0.0353,0.0353 -0.0604,-0.0274 -0.0558,-0.13944 z m -0.10624,-0.5312 c 0.005,-0.12377 0.0303,-0.14894 0.0642,-0.0642 0.0307,0.0767 0.0269,0.16832 -0.008,0.20363 -0.0353,0.0353 -0.0604,-0.0274 -0.0558,-0.13944 z m -0.21249,-0.95617 c 0.005,-0.12377 0.0303,-0.14894 0.0642,-0.0642 0.0307,0.0767 0.0269,0.16833 -0.008,0.20363 -0.0353,0.0353 -0.0604,-0.0275 -0.0558,-0.13944 z m -8.83994,-18.3974 c -0.13215,-0.16851 -0.12839,-0.17227 0.0401,-0.0401 0.17697,0.13879 0.23325,0.22604 0.14581,0.22604 -0.0221,0 -0.10572,-0.0837 -0.18592,-0.18592 z m -0.42496,-0.53121 c -0.13215,-0.1685 -0.1284,-0.17226 0.0401,-0.0401 0.10226,0.0802 0.18592,0.16386 0.18592,0.18592 0,0.0874 -0.0872,0.0312 -0.22603,-0.14581 z m -0.42497,-0.5312 c -0.13215,-0.16851 -0.12839,-0.17227 0.0401,-0.0401 0.17697,0.13879 0.23325,0.22604 0.1458,0.22604 -0.0221,0 -0.10572,-0.0837 -0.18592,-0.18592 z m -0.68711,-0.79681 -0.20238,-0.23904 0.23904,0.20239 c 0.13147,0.11131 0.23904,0.21888 0.23904,0.23904 0,0.085 -0.0855,0.0222 -0.2757,-0.20239 z m -0.95275,-1.06241 -0.31204,-0.34528 0.34528,0.31204 c 0.18991,0.17162 0.34528,0.327 0.34528,0.34528 0,0.0821 -0.0877,0.01 -0.37852,-0.31204 z m -2.5481,-2.54978 -0.41997,-0.45153 0.45153,0.41997 c 0.41991,0.39056 0.50034,0.48308 0.41996,0.48308 -0.0174,0 -0.22054,-0.20319 -0.45152,-0.45152 z m -1.11858,-1.00929 -0.25756,-0.29217 0.29217,0.25756 c 0.16068,0.14166 0.29216,0.27314 0.29216,0.29217 0,0.0833 -0.086,0.0155 -0.32677,-0.25756 z m -0.74919,-0.63745 c -0.13215,-0.1685 -0.1284,-0.17226 0.0401,-0.0401 0.10226,0.0802 0.18592,0.16386 0.18592,0.18592 0,0.0874 -0.0872,0.0312 -0.22603,-0.14581 z"
           id="path4185" />
        <path
           style="fill:#fc0000;stroke-width:0.106241"
           d="m 99.780817,200.87024 c 0.306773,-0.0215 0.808763,-0.0215 1.115533,0 0.30677,0.0215 0.0558,0.039 -0.55777,0.039 -0.61354,0 -0.864534,-0.0175 -0.557763,-0.039 z m -2.549784,-0.10477 c 0.189906,-0.0236 0.50066,-0.0236 0.690566,0 0.189906,0.0236 0.03453,0.0428 -0.345283,0.0428 -0.379812,0 -0.535189,-0.0193 -0.345283,-0.0428 z m 5.526437,0 c 0.19095,-0.0237 0.4778,-0.0232 0.63744,0.001 0.15965,0.0242 0.003,0.0436 -0.34718,0.043 -0.3506,-0.001 -0.48121,-0.0204 -0.29026,-0.0441 z m -6.906331,-0.1044 c 0.132154,-0.0254 0.323388,-0.0244 0.424964,0.002 0.101575,0.0266 -0.0066,0.0474 -0.240282,0.0462 -0.23373,-0.001 -0.316837,-0.0229 -0.184682,-0.0483 z m 8.605521,0 c 0.13215,-0.0254 0.32339,-0.0244 0.42496,0.002 0.10158,0.0266 -0.007,0.0474 -0.24028,0.0462 -0.23373,-0.001 -0.31683,-0.0229 -0.18468,-0.0483 z m -9.722291,-0.10432 c 0.102257,-0.0267 0.269587,-0.0267 0.371844,0 0.102257,0.0267 0.01859,0.0486 -0.185922,0.0486 -0.204514,0 -0.288179,-0.0219 -0.185922,-0.0486 z m 10.836581,0 c 0.10226,-0.0267 0.26959,-0.0267 0.37184,0 0.10226,0.0267 0.0186,0.0486 -0.18592,0.0486 -0.20451,0 -0.28818,-0.0219 -0.18592,-0.0486 z m -11.684487,-0.10664 c 0.103369,-0.0269 0.246795,-0.0252 0.318723,0.004 0.07193,0.0291 -0.01265,0.0511 -0.187943,0.049 -0.175298,-0.002 -0.234149,-0.026 -0.13078,-0.0529 z m 12.587537,0.003 c 0.073,-0.0295 0.19256,-0.0295 0.2656,0 0.073,0.0295 0.0133,0.0536 -0.1328,0.0536 -0.14608,0 -0.20584,-0.0241 -0.1328,-0.0536 z m -13.331224,-0.1095 c 0.103369,-0.0269 0.246795,-0.0252 0.318723,0.004 0.07193,0.0291 -0.01265,0.0511 -0.187944,0.049 -0.175297,-0.002 -0.234148,-0.026 -0.130779,-0.0529 z m 14.130054,0 c 0.10337,-0.0269 0.24679,-0.0252 0.31872,0.004 0.0719,0.0291 -0.0126,0.0511 -0.18794,0.049 -0.1753,-0.002 -0.23415,-0.026 -0.13078,-0.0529 z m -14.822642,-0.10315 c 0.07304,-0.0295 0.192562,-0.0295 0.265602,0 0.07304,0.0295 0.01328,0.0536 -0.132801,0.0536 -0.146081,0 -0.205842,-0.0241 -0.132801,-0.0536 z m 15.511182,0 c 0.073,-0.0295 0.19257,-0.0295 0.26561,0 0.073,0.0295 0.0133,0.0536 -0.1328,0.0536 -0.14609,0 -0.20585,-0.0241 -0.13281,-0.0536 z m -16.148628,-0.10624 c 0.07304,-0.0295 0.192562,-0.0295 0.265602,0 0.07304,0.0295 0.01328,0.0536 -0.132801,0.0536 -0.146081,0 -0.205842,-0.0241 -0.132801,-0.0536 z m 16.786078,0 c 0.073,-0.0295 0.19256,-0.0295 0.2656,0 0.073,0.0295 0.0133,0.0536 -0.1328,0.0536 -0.14608,0 -0.20584,-0.0241 -0.1328,-0.0536 z m -17.423524,-0.10624 c 0.07304,-0.0295 0.192562,-0.0295 0.265602,0 0.07304,0.0295 0.01328,0.0536 -0.132801,0.0536 -0.146081,0 -0.205842,-0.0241 -0.132801,-0.0536 z m 18.067614,-0.002 c 0.0767,-0.0307 0.16832,-0.0269 0.20362,0.008 0.0353,0.0353 -0.0274,0.0604 -0.13944,0.0558 -0.12376,-0.005 -0.14894,-0.0303 -0.0642,-0.0642 z M 90.650731,199.9198 c 0.07669,-0.0307 0.168326,-0.0269 0.203629,0.008 0.0353,0.0353 -0.02745,0.0604 -0.139442,0.0558 -0.123765,-0.005 -0.148939,-0.0303 -0.06419,-0.0642 z m 19.116739,0.002 c 0.073,-0.0295 0.19256,-0.0295 0.2656,0 0.073,0.0295 0.0133,0.0536 -0.1328,0.0536 -0.14608,0 -0.20584,-0.0241 -0.1328,-0.0536 z m -19.654584,-0.10624 c 0.07304,-0.0295 0.192562,-0.0295 0.265602,0 0.07304,0.0295 0.01328,0.0536 -0.132801,0.0536 -0.146081,0 -0.205842,-0.0241 -0.132801,-0.0536 z m 20.192434,-0.002 c 0.0767,-0.0307 0.16832,-0.0269 0.20362,0.008 0.0353,0.0353 -0.0274,0.0604 -0.13944,0.0558 -0.12376,-0.005 -0.14894,-0.0303 -0.0642,-0.0642 z m -20.723639,-0.10401 c 0.07304,-0.0295 0.192562,-0.0295 0.265602,0 0.07304,0.0295 0.01328,0.0536 -0.132801,0.0536 -0.146081,0 -0.205842,-0.0241 -0.132801,-0.0536 z m 21.254839,-0.002 c 0.0767,-0.0307 0.16833,-0.0269 0.20363,0.008 0.0353,0.0353 -0.0275,0.0604 -0.13944,0.0558 -0.12377,-0.005 -0.14894,-0.0303 -0.0642,-0.0642 z m -21.673163,-0.10624 c 0.07669,-0.0307 0.168326,-0.0269 0.203629,0.008 0.0353,0.0353 -0.02745,0.0604 -0.139442,0.0558 -0.123765,-0.005 -0.148939,-0.0303 -0.06419,-0.0642 z m 22.204373,0 c 0.0767,-0.0307 0.16832,-0.0269 0.20362,0.008 0.0353,0.0353 -0.0274,0.0604 -0.13944,0.0558 -0.12376,-0.005 -0.14894,-0.0303 -0.0642,-0.0642 z m -22.629337,-0.10625 c 0.07669,-0.0307 0.168326,-0.0269 0.203629,0.008 0.0353,0.0353 -0.02745,0.0604 -0.139442,0.0558 -0.123765,-0.005 -0.148939,-0.0303 -0.06419,-0.0642 z m 23.054297,0 c 0.0767,-0.0307 0.16833,-0.0269 0.20363,0.008 0.0353,0.0353 -0.0275,0.0604 -0.13944,0.0558 -0.12377,-0.005 -0.14894,-0.0303 -0.0642,-0.0642 z m -23.479261,-0.10624 c 0.07669,-0.0307 0.168326,-0.0269 0.203629,0.008 0.0353,0.0353 -0.02745,0.0604 -0.139442,0.0558 -0.123765,-0.005 -0.148939,-0.0303 -0.06419,-0.0642 z m 23.904221,0 c 0.0767,-0.0307 0.16833,-0.0269 0.20363,0.008 0.0353,0.0353 -0.0274,0.0604 -0.13944,0.0558 -0.12376,-0.005 -0.14894,-0.0303 -0.0642,-0.0642 z m 0.42497,-0.10624 c 0.0767,-0.0307 0.16832,-0.0269 0.20363,0.008 0.0353,0.0353 -0.0275,0.0604 -0.13944,0.0558 -0.12377,-0.005 -0.14894,-0.0303 -0.0642,-0.0642 z m -25.179119,-0.10624 c 0.07669,-0.0307 0.168326,-0.0269 0.203629,0.008 0.0353,0.0353 -0.02745,0.0604 -0.139442,0.0558 -0.123765,-0.005 -0.148939,-0.0303 -0.06419,-0.0642 z m -0.743687,-0.21248 c 0.07669,-0.0307 0.168326,-0.0269 0.203629,0.008 0.0353,0.0353 -0.02745,0.0604 -0.139442,0.0558 -0.123765,-0.005 -0.148939,-0.0303 -0.06419,-0.0642 z m 27.091456,0 c 0.0767,-0.0307 0.16832,-0.0269 0.20363,0.008 0.0353,0.0353 -0.0275,0.0604 -0.13944,0.0558 -0.12377,-0.005 -0.14894,-0.0303 -0.0642,-0.0642 z m 1.06241,-0.31872 c 0.0767,-0.0307 0.16832,-0.0269 0.20363,0.008 0.0353,0.0353 -0.0275,0.0604 -0.13944,0.0558 -0.12377,-0.005 -0.14894,-0.0303 -0.0642,-0.0642 z m -32.489827,-1.09606 c -0.08765,-0.0566 -0.111553,-0.10299 -0.05312,-0.10299 0.05843,0 0.177953,0.0463 0.265602,0.10299 0.08765,0.0567 0.111553,0.10299 0.05312,0.10299 -0.05843,0 -0.177954,-0.0463 -0.265602,-0.10299 z m 37.715557,-0.84993 c 0.0876,-0.0566 0.20717,-0.10299 0.2656,-0.10299 0.0584,0 0.0345,0.0463 -0.0531,0.10299 -0.0877,0.0567 -0.20717,0.10299 -0.2656,0.10299 -0.0584,0 -0.0345,-0.0463 0.0531,-0.10299 z m -40.265341,-0.21248 c -0.08765,-0.0566 -0.111553,-0.10299 -0.05312,-0.10299 0.05843,0 0.177953,0.0463 0.265602,0.10299 0.08765,0.0567 0.111553,0.10299 0.05312,0.10299 -0.05843,0 -0.177953,-0.0463 -0.265602,-0.10299 z m 41.327751,-0.2656 c 0.14608,-0.0835 0.31341,-0.15183 0.37184,-0.15183 0.0584,0 -0.0133,0.0683 -0.15936,0.15183 -0.14608,0.0835 -0.31341,0.15183 -0.37184,0.15183 -0.0584,0 0.0133,-0.0683 0.15936,-0.15183 z m 2.01858,-0.95071 c 0,-0.0292 0.14342,-0.1273 0.31872,-0.21794 0.1753,-0.0906 0.31872,-0.14092 0.31872,-0.11171 0,0.0292 -0.14342,0.1273 -0.31872,0.21795 -0.1753,0.0906 -0.31872,0.14092 -0.31872,0.1117 z m -46.592936,-0.43629 c -0.198035,-0.15866 -0.196733,-0.16062 0.03281,-0.0494 0.131473,0.0637 0.239042,0.13806 0.239042,0.16523 0,0.0813 -0.0551,0.0578 -0.271857,-0.11585 z m -1.487374,-0.84992 c -0.198035,-0.15866 -0.196733,-0.16063 0.03281,-0.0494 0.131473,0.0637 0.239042,0.13806 0.239042,0.16523 0,0.0813 -0.0551,0.0578 -0.271857,-0.11584 z m 50.52385,-0.0929 c 0,-0.0292 0.0956,-0.10429 0.21248,-0.16684 0.11687,-0.0625 0.21248,-0.0898 0.21248,-0.0606 0,0.0292 -0.0956,0.10429 -0.21248,0.16684 -0.11686,0.0625 -0.21248,0.0898 -0.21248,0.0606 z m -51.055055,-0.22582 c -0.198035,-0.15866 -0.196733,-0.16062 0.03281,-0.0494 0.131473,0.0637 0.239042,0.13806 0.239042,0.16522 0,0.0813 -0.0551,0.0578 -0.271857,-0.11584 z m 51.586265,-0.0929 c 0,-0.0292 0.0956,-0.10429 0.21248,-0.16684 0.11686,-0.0625 0.21248,-0.0898 0.21248,-0.0606 0,0.0292 -0.0956,0.1043 -0.21248,0.16684 -0.11687,0.0626 -0.21248,0.0898 -0.21248,0.0606 z m 2.76226,-1.80057 c 0,-0.0221 0.0837,-0.10572 0.18592,-0.18592 0.16851,-0.13215 0.17227,-0.12839 0.0401,0.0401 -0.13879,0.17698 -0.22604,0.23325 -0.22604,0.14581 z m 0.42496,-0.31872 c 0,-0.0221 0.0837,-0.10573 0.18593,-0.18592 0.1685,-0.13215 0.17226,-0.12839 0.0401,0.0401 -0.13879,0.17697 -0.22604,0.23325 -0.22604,0.14581 z m -58.552338,-0.35829 c -0.13215,-0.16851 -0.128392,-0.17226 0.04011,-0.0401 0.102257,0.0802 0.185922,0.16386 0.185922,0.18592 0,0.0874 -0.08724,0.0312 -0.226034,-0.14581 z m 58.977308,0.0396 c 0,-0.0221 0.0837,-0.10573 0.18592,-0.18592 0.16851,-0.13215 0.17226,-0.1284 0.0401,0.0401 -0.13879,0.17697 -0.22603,0.23325 -0.22603,0.14581 z m -27.11745,-0.30517 c -0.0691,-0.1885 0.38757,-2.10666 0.67239,-2.82387 0.13157,-0.33132 0.42296,-0.97292 0.64752,-1.42577 0.28368,-0.57204 0.36368,-0.82337 0.26209,-0.82337 -0.16288,0 -0.7124,0.39518 -0.84416,0.60706 -0.11968,0.19246 -0.49319,0.17008 -0.5716,-0.0342 -0.0361,-0.094 0.0183,-0.44058 0.12077,-0.77025 0.3231,-1.03935 0.90946,-2.01796 1.7348,-2.89529 0.85175,-0.90542 0.83942,-0.97057 -0.13445,-0.7101 -0.35846,0.0959 -0.50946,0.0976 -0.60007,0.007 -0.17869,-0.17869 0.2786,-0.8985 1.19251,-1.87711 0.64105,-0.68642 0.92005,-0.89386 1.73623,-1.29091 0.53485,-0.26019 1.07195,-0.47307 1.19355,-0.47307 0.13743,0 0.97982,0.68947 2.22616,1.82206 3.63204,3.30055 3.67769,3.34652 3.59354,3.61888 -0.70708,2.28846 -2.42556,4.20765 -4.91061,5.48413 -1.63349,0.83907 -1.79559,0.7463 -0.89437,-0.51188 0.34081,-0.4758 0.70958,-1.01742 0.81949,-1.20358 0.19363,-0.32796 0.18348,-0.32425 -0.32639,0.11934 -0.28943,0.25181 -0.76589,0.66625 -1.0588,0.92098 -0.8035,0.69879 -2.26547,1.5773 -3.3417,2.00805 -1.00703,0.40306 -1.43534,0.47418 -1.5169,0.2519 z m 12.16207,-1.11988 c -0.60001,-0.56733 -1.09004,-1.11581 -1.08897,-1.21885 0.001,-0.10304 0.55176,-1.56637 1.22373,-3.25185 0.67197,-1.68548 1.22177,-3.11641 1.22177,-3.17985 0,-0.0634 -0.43882,0.0794 -0.97515,0.3175 -0.75216,0.33386 -1.03065,0.41145 -1.21786,0.33932 -0.13349,-0.0514 -1.2604,-1.01981 -2.50424,-2.15195 -3.17374,-2.88872 -3.16458,-2.87978 -3.16458,-3.09115 0,-0.10463 0.16881,-0.6566 0.37515,-1.2266 0.20633,-0.57 0.34998,-1.06153 0.31921,-1.09229 -0.0308,-0.0308 -1.48472,0.66894 -3.23104,1.55489 -1.74631,0.88596 -3.27186,1.61083 -3.39012,1.61083 -0.24398,0 -2.36,-1.84958 -2.36,-2.06284 0,-0.0757 0.94866,-1.56954 2.10813,-3.31971 1.15948,-1.75016 2.36154,-3.5968 2.67126,-4.10364 0.47885,-0.7836 0.61252,-0.92954 0.89318,-0.97511 0.18152,-0.0295 1.23841,-0.17472 2.34862,-0.32276 3.11131,-0.4149 4.87952,-0.69164 4.94661,-0.77419 0.0336,-0.0413 0.34152,-0.55322 0.68432,-1.13755 1.99335,-3.39788 4.11207,-6.09175 6.62148,-8.41893 1.76608,-1.63784 2.48393,-2.24172 3.63062,-3.05426 1.05189,-0.74536 3.84363,-2.17878 4.24341,-2.17878 0.15248,0 1.22545,0.90584 3.17275,2.67855 6.3864,5.81384 6.60769,6.02594 6.60716,6.3325 -5.3e-4,0.30635 -0.97178,2.38305 -1.70783,3.65164 -2.40974,4.15323 -6.44768,8.61093 -10.68543,11.79622 -0.80474,0.60489 -0.99714,0.80369 -1.04167,1.07635 -0.03,0.18393 -0.12846,1.81649 -0.21873,3.6279 -0.0903,1.8114 -0.18666,3.4383 -0.21419,3.61533 -0.0417,0.26813 -0.26727,0.48033 -1.3511,1.27106 -2.19323,1.60012 -4.54926,3.33974 -5.48675,4.05125 -0.49074,0.37244 -0.99273,0.67521 -1.11553,0.67282 -0.13295,-0.003 -0.66465,-0.42168 -1.31421,-1.03585 z m 13.70425,-22.94761 c 0.81711,-0.40259 1.42511,-1.03179 1.85707,-1.92183 0.2489,-0.51286 0.29048,-0.73324 0.29354,-1.5559 0.003,-0.87219 -0.0278,-1.02208 -0.34496,-1.66637 -0.58103,-1.18022 -1.60087,-1.94278 -2.9544,-2.20907 -1.64877,-0.32438 -3.48817,0.63508 -4.27019,2.2274 -0.2569,0.52308 -0.28829,0.70495 -0.28484,1.65028 0.005,1.26676 0.19578,1.78314 0.96417,2.60461 0.92974,0.99396 1.6377,1.28075 3.07191,1.24438 0.84213,-0.0214 1.04532,-0.0669 1.6677,-0.3735 z m -58.682347,23.5894 c -0.13215,-0.1685 -0.128392,-0.17226 0.04011,-0.0401 0.102257,0.0802 0.185922,0.16386 0.185922,0.18592 0,0.0874 -0.08724,0.0312 -0.226034,-0.14581 z m 60.889647,0.0396 c 0,-0.0221 0.0837,-0.10573 0.18592,-0.18592 0.1685,-0.13215 0.17226,-0.12839 0.0401,0.0401 -0.13879,0.17697 -0.22603,0.23325 -0.22603,0.14581 z m -61.420852,-0.46453 c -0.13215,-0.16851 -0.128392,-0.17226 0.04011,-0.0401 0.176971,0.13879 0.23325,0.22603 0.14581,0.22603 -0.02206,0 -0.105726,-0.0837 -0.185922,-0.18592 z m 61.952052,0.0396 c 0,-0.0221 0.0837,-0.10573 0.18592,-0.18593 0.16851,-0.13215 0.17227,-0.12839 0.0401,0.0401 -0.13879,0.17697 -0.22604,0.23325 -0.22604,0.14581 z m -62.532919,-0.51766 -0.202389,-0.23904 0.239043,0.20239 c 0.22464,0.19019 0.287407,0.2757 0.202388,0.2757 -0.02016,0 -0.12773,-0.10757 -0.239042,-0.23905 z m 63.329729,-0.18592 c 0.10576,-0.11686 0.2162,-0.21248 0.24542,-0.21248 0.0292,0 -0.0334,0.0956 -0.13918,0.21248 -0.10576,0.11687 -0.2162,0.21248 -0.24541,0.21248 -0.0292,0 0.0334,-0.0956 0.13917,-0.21248 z m -64.124484,-0.50464 -0.257561,-0.29217 0.292162,0.25757 c 0.27307,0.24073 0.340884,0.32676 0.257561,0.32676 -0.01903,0 -0.150503,-0.13147 -0.292162,-0.29216 z m 64.921294,-0.18592 c 0.13723,-0.14609 0.27342,-0.26561 0.30264,-0.26561 0.0292,0 -0.0592,0.11952 -0.1964,0.26561 -0.13724,0.14608 -0.27343,0.2656 -0.30264,0.2656 -0.0292,0 0.0592,-0.11952 0.1964,-0.2656 z M 66.872667,187.8278 c -0.258063,-0.26295 -0.445301,-0.47809 -0.416084,-0.47809 0.02922,0 0.264262,0.21514 0.522325,0.47809 0.258063,0.26294 0.445301,0.47808 0.416084,0.47808 -0.02922,0 -0.264262,-0.21514 -0.522325,-0.47808 z m 68.099003,-1.24833 c 1.33096,-1.357 1.48885,-1.50895 1.48885,-1.43278 0,0.0154 -0.65736,0.67279 -1.46081,1.46081 l -1.46082,1.43278 z m -70.600665,-1.2749 -0.419965,-0.45152 0.451524,0.41997 c 0.248338,0.23098 0.451524,0.43416 0.451524,0.45152 0,0.0804 -0.09252,-5e-5 -0.483083,-0.41997 z m 72.673845,-0.9296 c 0.10576,-0.11687 0.2162,-0.21249 0.24541,-0.21249 0.0292,0 -0.0334,0.0956 -0.13917,0.21249 -0.10576,0.11686 -0.2162,0.21248 -0.24542,0.21248 -0.0292,0 0.0334,-0.0956 0.13918,-0.21248 z m -73.635109,-0.13281 -0.202389,-0.23904 0.239043,0.20239 c 0.131473,0.11131 0.239042,0.21888 0.239042,0.23904 0,0.085 -0.0855,0.0223 -0.275696,-0.20239 z m 74.272549,-0.61088 c 0.10577,-0.11687 0.2162,-0.21248 0.24542,-0.21248 0.0292,0 -0.0334,0.0956 -0.13918,0.21248 -0.10576,0.11686 -0.21619,0.21248 -0.24541,0.21248 -0.0292,0 0.0334,-0.0956 0.13917,-0.21248 z m -74.966574,-0.18592 c -0.13215,-0.16851 -0.128392,-0.17227 0.04011,-0.0401 0.176971,0.13879 0.23325,0.22604 0.14581,0.22604 -0.02206,0 -0.105726,-0.0837 -0.185922,-0.18592 z m -0.474626,-0.58433 -0.202388,-0.23904 0.239042,0.20239 c 0.22464,0.19019 0.287407,0.27569 0.202388,0.27569 -0.02016,0 -0.12773,-0.10757 -0.239042,-0.23904 z M 138.4791,182.635 c 0,-0.0221 0.0837,-0.10573 0.18592,-0.18592 0.16851,-0.13215 0.17227,-0.1284 0.0401,0.0401 -0.13879,0.17697 -0.22604,0.23325 -0.22604,0.14581 z m -76.613312,-0.25205 c -0.13215,-0.16851 -0.128392,-0.17227 0.04011,-0.0401 0.176971,0.13879 0.23325,0.22604 0.14581,0.22604 -0.02206,0 -0.105726,-0.0837 -0.185922,-0.18592 z m 77.038272,-0.27916 c 0,-0.0221 0.0837,-0.10572 0.18593,-0.18592 0.1685,-0.13215 0.17226,-0.12839 0.0401,0.0401 -0.13879,0.17697 -0.22604,0.23325 -0.22604,0.14581 z m -77.463236,-0.25205 c -0.13215,-0.1685 -0.128392,-0.17226 0.04011,-0.0401 0.176971,0.13879 0.23325,0.22603 0.14581,0.22603 -0.02206,0 -0.105726,-0.0837 -0.185922,-0.18592 z m 77.781966,-0.17291 c 0,-0.0221 0.0837,-0.10573 0.18592,-0.18592 0.1685,-0.13215 0.17226,-0.1284 0.0401,0.0401 -0.13879,0.17697 -0.22603,0.23325 -0.22603,0.14581 z m -78.100689,-0.25205 c -0.13215,-0.16851 -0.128392,-0.17226 0.04011,-0.0401 0.176971,0.13879 0.23325,0.22603 0.14581,0.22603 -0.02206,0 -0.105726,-0.0837 -0.185922,-0.18592 z m -2.536232,-3.745 c -0.06254,-0.11686 -0.08981,-0.21248 -0.0606,-0.21248 0.02922,0 0.104293,0.0956 0.166837,0.21248 0.06254,0.11687 0.08981,0.21249 0.0606,0.21249 -0.02922,0 -0.104293,-0.0956 -0.166837,-0.21249 z m -0.743687,-1.27489 c -0.06254,-0.11686 -0.08981,-0.21248 -0.0606,-0.21248 0.02922,0 0.104293,0.0956 0.166837,0.21248 0.06254,0.11687 0.08981,0.21248 0.0606,0.21248 -0.02922,0 -0.104293,-0.0956 -0.166837,-0.21248 z m -0.637446,-1.16865 c -0.06254,-0.11687 -0.08981,-0.21248 -0.0606,-0.21248 0.02922,0 0.104293,0.0956 0.166837,0.21248 0.06254,0.11687 0.08981,0.21248 0.0606,0.21248 -0.02922,0 -0.104293,-0.0956 -0.166837,-0.21248 z m -0.889924,-1.75708 c -0.10252,-0.26717 -0.07228,-0.3361 0.05296,-0.12073 0.06201,0.10664 0.09037,0.21627 0.06302,0.24362 -0.02735,0.0274 -0.07954,-0.028 -0.11598,-0.12289 z m -0.531205,-1.16865 c -0.10252,-0.26717 -0.07228,-0.3361 0.05296,-0.12073 0.06201,0.10664 0.09037,0.21627 0.06302,0.24362 -0.02735,0.0274 -0.07954,-0.0279 -0.11598,-0.12289 z m -0.318723,-0.74369 c -0.10252,-0.26716 -0.07228,-0.3361 0.05297,-0.12073 0.06201,0.10664 0.09037,0.21627 0.06302,0.24363 -0.02735,0.0273 -0.07954,-0.028 -0.11598,-0.1229 z m -1.970196,-5.74176 c 0.0051,-0.12377 0.03027,-0.14894 0.06419,-0.0642 0.03069,0.0767 0.02692,0.16833 -0.0084,0.20363 -0.0353,0.0353 -0.06041,-0.0274 -0.0558,-0.13944 z m -0.106241,-0.42497 c 0.0051,-0.12376 0.03027,-0.14893 0.06419,-0.0642 0.03069,0.0767 0.02692,0.16832 -0.0084,0.20363 -0.0353,0.0353 -0.06041,-0.0274 -0.0558,-0.13945 z m -0.106241,-0.42496 c 0.0051,-0.12377 0.03027,-0.14894 0.06419,-0.0642 0.03069,0.0767 0.02692,0.16833 -0.0084,0.20363 -0.0353,0.0353 -0.06041,-0.0274 -0.0558,-0.13944 z m -0.212482,-0.84993 c 0.0051,-0.12376 0.03027,-0.14894 0.06419,-0.0642 0.03069,0.0767 0.02691,0.16833 -0.0084,0.20363 -0.0353,0.0353 -0.06041,-0.0274 -0.0558,-0.13944 z m -0.212482,-0.95617 c 0.0051,-0.12376 0.03027,-0.14894 0.06419,-0.0642 0.03069,0.0767 0.02692,0.16832 -0.0084,0.20362 -0.0353,0.0353 -0.06041,-0.0274 -0.0558,-0.13944 z m -0.106241,-0.5312 c 0.0051,-0.12377 0.03027,-0.14894 0.06419,-0.0642 0.03069,0.0767 0.02692,0.16833 -0.0084,0.20363 -0.0353,0.0353 -0.06041,-0.0274 -0.0558,-0.13944 z m -0.106241,-0.53121 c 0.0051,-0.12376 0.03027,-0.14894 0.06419,-0.0642 0.03069,0.0767 0.02692,0.16832 -0.0084,0.20362 -0.0353,0.0353 -0.06041,-0.0274 -0.0558,-0.13944 z m 95.29818,-0.21248 c 0.005,-0.12376 0.0303,-0.14894 0.0642,-0.0642 0.0307,0.0767 0.0269,0.16833 -0.008,0.20363 -0.0353,0.0353 -0.0604,-0.0274 -0.0558,-0.13944 z m -95.404421,-0.42496 c 0.0051,-0.12377 0.03027,-0.14894 0.06419,-0.0642 0.03069,0.0767 0.02691,0.16833 -0.0084,0.20363 -0.0353,0.0353 -0.06041,-0.0275 -0.0558,-0.13944 z m 95.510661,-0.10624 c 0.005,-0.12377 0.0303,-0.14894 0.0642,-0.0642 0.0307,0.0767 0.0269,0.16832 -0.008,0.20363 -0.0353,0.0353 -0.0604,-0.0274 -0.0558,-0.13944 z m -95.608514,-0.46923 c 0,-0.14609 0.02411,-0.20585 0.05359,-0.13281 0.02947,0.073 0.02947,0.19257 0,0.26561 -0.02947,0.073 -0.05359,0.0133 -0.05359,-0.1328 z m 95.714754,-0.27446 c 0.005,-0.12377 0.0303,-0.14894 0.0642,-0.0642 0.0307,0.0767 0.0269,0.16833 -0.008,0.20363 -0.0353,0.0353 -0.0604,-0.0275 -0.0558,-0.13944 z m -95.820995,-0.46923 c 0,-0.14608 0.02411,-0.20584 0.05359,-0.1328 0.02947,0.073 0.02947,0.19256 0,0.2656 -0.02947,0.073 -0.05359,0.0133 -0.05359,-0.1328 z m 95.927235,-0.27446 c 0.005,-0.12376 0.0303,-0.14894 0.0642,-0.0642 0.0307,0.0767 0.0269,0.16833 -0.008,0.20363 -0.0353,0.0353 -0.0604,-0.0274 -0.0558,-0.13944 z m -96.029539,-0.52235 c 0.0022,-0.1753 0.02598,-0.23415 0.05291,-0.13078 0.02694,0.10337 0.02517,0.2468 -0.0039,0.31872 -0.0291,0.0719 -0.05114,-0.0126 -0.04898,-0.18794 z m 85.065679,-0.77025 c -0.49775,-0.45285 -2.16864,-1.97017 -3.71309,-3.37183 -3.89772,-3.53735 -4.0546,-3.691 -3.97648,-3.89459 0.0407,-0.10607 0.60559,-0.3593 1.46722,-0.65773 2.98001,-1.03214 4.62254,-1.35779 6.9727,-1.38241 l 1.53451,-0.0161 0.095,0.42496 c 0.13401,0.5994 0.0151,3.82277 -0.19005,5.15269 -0.15014,0.97324 -0.57843,2.93645 -0.90971,4.16996 -0.0589,0.21912 -0.16732,0.3984 -0.24105,0.3984 -0.0737,0 -0.5413,-0.37051 -1.03906,-0.82337 z m 11.07849,0.50465 c 0,-0.14608 0.0241,-0.20584 0.0536,-0.1328 0.0295,0.073 0.0295,0.19256 0,0.2656 -0.0295,0.073 -0.0536,0.0133 -0.0536,-0.1328 z m -96.25041,-0.69057 c 0.0022,-0.1753 0.02597,-0.23415 0.05291,-0.13078 0.02694,0.10337 0.02517,0.2468 -0.0039,0.31873 -0.0291,0.0719 -0.05114,-0.0126 -0.04898,-0.18795 z m 96.35665,-0.2656 c 0,-0.14608 0.0241,-0.20584 0.0536,-0.1328 0.0295,0.073 0.0295,0.19256 0,0.2656 -0.0295,0.073 -0.0536,0.0133 -0.0536,-0.1328 z m -96.454667,-0.95617 c 0,-0.26295 0.02072,-0.37052 0.04604,-0.23904 0.02532,0.13147 0.02532,0.34661 0,0.47808 -0.02532,0.13148 -0.04604,0.0239 -0.04604,-0.23904 z m 96.570927,-0.37184 c 0.001,-0.23373 0.0229,-0.31684 0.0483,-0.18469 0.0254,0.13216 0.0244,0.32339 -0.002,0.42497 -0.0266,0.10157 -0.0474,-0.007 -0.0462,-0.24028 z m -96.660413,-3.13411 c 0,-1.37317 0.01514,-1.93492 0.03365,-1.24833 0.01851,0.68658 0.01851,1.81008 0,2.49666 -0.0185,0.68658 -0.03365,0.12483 -0.03365,-1.24833 z m 96.781783,0.0531 c 2.1e-4,-0.81806 0.0168,-1.13867 0.0371,-0.71248 0.0202,0.42619 0.0201,1.09551 -3.2e-4,1.48737 -0.0204,0.39187 -0.0369,0.0432 -0.0367,-0.77489 z m -0.12352,-3.13411 c 0,-0.20452 0.0219,-0.28818 0.0486,-0.18592 0.0267,0.10225 0.0267,0.26958 0,0.37184 -0.0267,0.10226 -0.0486,0.0186 -0.0486,-0.18592 z m -96.570921,-0.37185 c 0.0012,-0.23373 0.02294,-0.31683 0.04835,-0.18468 0.02541,0.13216 0.02445,0.32339 -0.0021,0.42497 -0.02659,0.10157 -0.04738,-0.007 -0.0462,-0.24029 z m 96.456811,-0.90304 c 0,-0.14609 0.0241,-0.20585 0.0536,-0.13281 0.0295,0.0731 0.0295,0.19257 0,0.26561 -0.0295,0.073 -0.0536,0.0133 -0.0536,-0.1328 z m -96.352714,-0.31873 c 0,-0.20451 0.02186,-0.28818 0.04859,-0.18592 0.02672,0.10226 0.02672,0.26959 0,0.37184 -0.02672,0.10226 -0.04859,0.0186 -0.04859,-0.18592 z m 96.246474,-0.63744 c 0,-0.14608 0.0241,-0.20584 0.0536,-0.1328 0.0295,0.073 0.0295,0.19256 0,0.2656 -0.0295,0.073 -0.0536,0.0133 -0.0536,-0.1328 z m -96.144169,-0.26561 c 0.0022,-0.17529 0.02598,-0.23414 0.05291,-0.13077 0.02694,0.10336 0.02517,0.24679 -0.0039,0.31872 -0.0291,0.0719 -0.05114,-0.0127 -0.04898,-0.18795 z m 96.029539,-0.64629 c 0.005,-0.12377 0.0303,-0.14894 0.0642,-0.0642 0.0307,0.0767 0.0269,0.16832 -0.008,0.20363 -0.0353,0.0353 -0.0604,-0.0275 -0.0558,-0.13944 z m -95.927235,-0.15051 c 0,-0.14608 0.02411,-0.20584 0.05359,-0.1328 0.02947,0.073 0.02947,0.19256 0,0.2656 -0.02947,0.073 -0.05359,0.0133 -0.05359,-0.1328 z m 95.820995,-0.59318 c 0.005,-0.12377 0.0303,-0.14894 0.0642,-0.0642 0.0307,0.0767 0.0269,0.16833 -0.008,0.20363 -0.0353,0.0353 -0.0604,-0.0274 -0.0558,-0.13944 z m -95.714754,-0.15051 c 0,-0.14608 0.02411,-0.20584 0.05359,-0.1328 0.02947,0.073 0.02947,0.19256 0,0.2656 -0.02947,0.073 -0.05359,0.0133 -0.05359,-0.1328 z m 95.608514,-0.48694 c 0.005,-0.12376 0.0303,-0.14894 0.0642,-0.0642 0.0307,0.0767 0.0269,0.16833 -0.008,0.20363 -0.0353,0.0353 -0.0604,-0.0274 -0.0558,-0.13944 z M 52.546907,145.9157 c 0,-0.14608 0.02411,-0.20584 0.05359,-0.1328 0.02947,0.073 0.02947,0.19256 0,0.26561 -0.02947,0.073 -0.05359,0.0133 -0.05359,-0.13281 z m 0.09785,-0.59317 c 0.0051,-0.12377 0.03027,-0.14894 0.06419,-0.0642 0.03069,0.0767 0.02692,0.16832 -0.0084,0.20363 -0.0353,0.0353 -0.06041,-0.0274 -0.0558,-0.13944 z m 95.191943,-0.42497 c 0.005,-0.12376 0.0303,-0.14894 0.0642,-0.0642 0.0307,0.0767 0.0269,0.16833 -0.008,0.20363 -0.0353,0.0353 -0.0604,-0.0274 -0.0558,-0.13944 z m -95.077314,-0.15051 c 0,-0.14608 0.02411,-0.20584 0.05359,-0.1328 0.02947,0.073 0.02947,0.19256 0,0.2656 -0.02947,0.073 -0.05359,0.0133 -0.05359,-0.1328 z m 94.971074,-0.38069 c 0.005,-0.12377 0.0303,-0.14894 0.0642,-0.0642 0.0307,0.0767 0.0269,0.16832 -0.008,0.20363 -0.0353,0.0353 -0.0604,-0.0274 -0.0558,-0.13944 z m -94.873221,-0.10624 c 0.0051,-0.12377 0.03027,-0.14894 0.06419,-0.0642 0.03069,0.0767 0.02692,0.16832 -0.0084,0.20363 -0.0353,0.0353 -0.06041,-0.0274 -0.0558,-0.13944 z m 0.106241,-0.53121 c 0.0051,-0.12377 0.03027,-0.14894 0.06419,-0.0642 0.03069,0.0767 0.02692,0.16833 -0.0084,0.20363 -0.0353,0.0353 -0.06041,-0.0274 -0.0558,-0.13944 z m 94.55449,-0.31872 c 0.005,-0.12377 0.0303,-0.14894 0.0642,-0.0642 0.0307,0.0767 0.0269,0.16833 -0.008,0.20363 -0.0353,0.0353 -0.0604,-0.0275 -0.0558,-0.13944 z m -94.448249,-0.10624 c 0.0051,-0.12377 0.03027,-0.14894 0.06419,-0.0642 0.03069,0.0767 0.02691,0.16832 -0.0084,0.20363 -0.0353,0.0353 -0.06041,-0.0274 -0.0558,-0.13944 z m 0.424964,-1.69986 c 0.0051,-0.12377 0.03027,-0.14894 0.06419,-0.0642 0.03069,0.0767 0.02692,0.16833 -0.0084,0.20363 -0.0353,0.0353 -0.06041,-0.0274 -0.0558,-0.13944 z m 0.951036,-3.07214 c 0,-0.0584 0.04634,-0.17795 0.102987,-0.2656 0.05664,-0.0876 0.102987,-0.11155 0.102987,-0.0531 0,0.0584 -0.04634,0.17796 -0.102987,0.2656 -0.05664,0.0876 -0.102987,0.11156 -0.102987,0.0531 z m 0.637446,-1.69985 c 0,-0.0584 0.04634,-0.17796 0.102987,-0.2656 0.05664,-0.0876 0.102987,-0.11156 0.102987,-0.0531 0,0.0584 -0.04634,0.17795 -0.102987,0.2656 -0.05664,0.0876 -0.102987,0.11155 -0.102987,0.0531 z m 0.531205,-1.27489 c 0,-0.0584 0.04634,-0.17796 0.102987,-0.26561 0.05664,-0.0876 0.102987,-0.11155 0.102987,-0.0531 0,0.0584 -0.04634,0.17796 -0.102987,0.26561 -0.05664,0.0876 -0.102987,0.11155 -0.102987,0.0531 z m 0.531205,-1.16865 c 0,-0.0584 0.04634,-0.17796 0.102987,-0.26561 0.05664,-0.0876 0.102987,-0.11155 0.102987,-0.0531 0,0.0584 -0.04634,0.17796 -0.102987,0.2656 -0.05664,0.0876 -0.102987,0.11156 -0.102987,0.0531 z m 1.802843,-3.55908 c 0.06254,-0.11686 0.137621,-0.21248 0.166837,-0.21248 0.02922,0 0.0019,0.0956 -0.0606,0.21248 -0.06254,0.11687 -0.137621,0.21248 -0.166837,0.21248 -0.02922,0 -0.0019,-0.0956 0.0606,-0.21248 z m 3.718435,-5.56464 c 0,-0.0221 0.08367,-0.10573 0.185922,-0.18592 0.168504,-0.13215 0.172262,-0.1284 0.04011,0.0401 -0.13879,0.17697 -0.226034,0.23325 -0.226034,0.14581 z m 77.011175,-0.25205 c -0.13215,-0.16851 -0.12839,-0.17227 0.0401,-0.0401 0.17697,0.13879 0.23325,0.22604 0.14581,0.22604 -0.0221,0 -0.10572,-0.0837 -0.18592,-0.18592 z m -76.586211,-0.27916 c 0,-0.0221 0.08366,-0.10572 0.185922,-0.18592 0.168504,-0.13215 0.172262,-0.12839 0.04011,0.0401 -0.13879,0.17697 -0.226034,0.23325 -0.226034,0.14581 z m 76.161251,-0.25205 c -0.13215,-0.1685 -0.1284,-0.17226 0.0401,-0.0401 0.10226,0.0802 0.18592,0.16386 0.18592,0.18592 0,0.0874 -0.0872,0.0312 -0.22603,-0.14581 z m -75.736287,-0.27915 c 0,-0.0221 0.08366,-0.10573 0.185922,-0.18592 0.168504,-0.13215 0.172262,-0.1284 0.04011,0.0401 -0.13879,0.17697 -0.226034,0.23325 -0.226034,0.14581 z M 137.8281,123.9504 c -0.13215,-0.16851 -0.12839,-0.17227 0.0401,-0.0401 0.17697,0.13879 0.23325,0.22604 0.1458,0.22604 -0.0221,0 -0.10572,-0.0837 -0.18592,-0.18592 z m -74.620748,-0.55777 c 0.105762,-0.11686 0.216199,-0.21248 0.245415,-0.21248 0.02922,0 -0.03341,0.0956 -0.139173,0.21248 -0.105762,0.11687 -0.216199,0.21248 -0.245415,0.21248 -0.02922,0 0.03341,-0.0956 0.139173,-0.21248 z m 73.933638,-0.23904 -0.20238,-0.23904 0.23904,0.20239 c 0.13147,0.11131 0.23904,0.21888 0.23904,0.23904 0,0.085 -0.0855,0.0222 -0.2757,-0.20239 z m -73.030589,-0.77025 c 0.198222,-0.20451 0.384309,-0.37184 0.413525,-0.37184 0.02922,0 -0.109062,0.16733 -0.307284,0.37184 -0.198222,0.20452 -0.384309,0.37185 -0.413525,0.37185 -0.02922,0 0.109062,-0.16733 0.307284,-0.37185 z m 72.077839,-0.29216 -0.31204,-0.34528 0.34528,0.31204 c 0.18991,0.17162 0.34528,0.327 0.34528,0.34528 0,0.0821 -0.0877,0.01 -0.37852,-0.31204 z m -70.324863,-1.56706 c 0.105762,-0.11686 0.216199,-0.21248 0.245415,-0.21248 0.02922,0 -0.03341,0.0956 -0.139174,0.21248 -0.105761,0.11687 -0.216198,0.21249 -0.245414,0.21249 -0.02922,0 0.03341,-0.0956 0.139173,-0.21249 z m 67.776763,-0.98272 -0.41997,-0.45153 0.45153,0.41997 c 0.41991,0.39056 0.50034,0.48308 0.41996,0.48308 -0.0174,0 -0.22054,-0.20319 -0.45152,-0.45152 z m -66.44875,-0.23905 c 0.198222,-0.20451 0.384309,-0.37184 0.413525,-0.37184 0.02922,0 -0.109062,0.16733 -0.307284,0.37184 -0.198222,0.20452 -0.384309,0.37185 -0.413525,0.37185 -0.02922,0 0.109062,-0.16733 0.307284,-0.37185 z m 65.33017,-0.77024 -0.25756,-0.29217 0.29217,0.25756 c 0.16068,0.14166 0.29216,0.27314 0.29216,0.29217 0,0.0833 -0.086,0.0155 -0.32677,-0.25756 z m -64.374001,-0.0797 c 0.137237,-0.14609 0.273425,-0.26561 0.302641,-0.26561 0.02922,0 -0.05916,0.11952 -0.1964,0.26561 -0.137237,0.14608 -0.273425,0.2656 -0.302641,0.2656 -0.02922,0 0.05916,-0.11952 0.1964,-0.2656 z m 63.624811,-0.55777 c -0.13215,-0.1685 -0.1284,-0.17226 0.0401,-0.0401 0.10226,0.0802 0.18592,0.16386 0.18592,0.18592 0,0.0874 -0.0872,0.0312 -0.22603,-0.14581 z m -62.987365,0.0396 c 0,-0.0221 0.08366,-0.10573 0.185922,-0.18592 0.168504,-0.13215 0.172262,-0.1284 0.04011,0.0401 -0.13879,0.17697 -0.226034,0.23325 -0.226034,0.14581 z m 62.456155,-0.46453 c -0.13215,-0.16851 -0.12839,-0.17227 0.0401,-0.0401 0.10226,0.0802 0.18592,0.16386 0.18592,0.18593 0,0.0874 -0.0872,0.0312 -0.22603,-0.14581 z M 69.475571,117.3369 c 0.105762,-0.11686 0.216199,-0.21248 0.245415,-0.21248 0.02922,0 -0.03341,0.0956 -0.139174,0.21248 -0.105761,0.11687 -0.216198,0.21249 -0.245414,0.21249 -0.02922,0 0.03341,-0.0956 0.139173,-0.21249 z m 61.234389,-0.29216 c -0.13215,-0.1685 -0.1284,-0.17226 0.0401,-0.0401 0.17697,0.13879 0.23325,0.22603 0.14581,0.22603 -0.0221,0 -0.10573,-0.0837 -0.18592,-0.18592 z m -60.862545,0.0396 c 0,-0.0221 0.08366,-0.10573 0.185922,-0.18592 0.168504,-0.13215 0.172262,-0.12839 0.04011,0.0401 -0.13879,0.17697 -0.226034,0.23325 -0.226034,0.14581 z m 0.956169,-0.74369 c 0,-0.0221 0.08366,-0.10572 0.185922,-0.18592 0.168504,-0.13215 0.172262,-0.12839 0.04011,0.0401 -0.13879,0.17698 -0.226034,0.23325 -0.226034,0.14581 z m 6.799424,-4.25517 c 0,-0.0292 0.09562,-0.10429 0.212482,-0.16684 0.116865,-0.0625 0.212482,-0.0898 0.212482,-0.0606 0,0.0292 -0.09562,0.10429 -0.212482,0.16684 -0.116865,0.0625 -0.212482,0.0898 -0.212482,0.0606 z m 32.808552,-4.48905 c 0.0767,-0.0307 0.16832,-0.0269 0.20363,0.008 0.0353,0.0353 -0.0275,0.0604 -0.13945,0.0558 -0.12376,-0.005 -0.14893,-0.0303 -0.0642,-0.0642 z m -1.06241,-0.21248 c 0.0767,-0.0307 0.16832,-0.0269 0.20363,0.008 0.0353,0.0353 -0.0275,0.0604 -0.13945,0.0558 -0.12376,-0.005 -0.14893,-0.0303 -0.0642,-0.0642 z m -0.63745,-0.10624 c 0.0767,-0.0307 0.16833,-0.0269 0.20363,0.008 0.0353,0.0353 -0.0275,0.0604 -0.13944,0.0558 -0.12377,-0.005 -0.14894,-0.0303 -0.0642,-0.0642 z m -16.361113,-0.10624 c 0.07669,-0.0307 0.168326,-0.0269 0.203629,0.008 0.0353,0.0353 -0.02745,0.0604 -0.139442,0.0558 -0.123765,-0.005 -0.148939,-0.0303 -0.06419,-0.0642 z m 0.743687,-0.10625 c 0.07669,-0.0307 0.168326,-0.0269 0.203629,0.008 0.0353,0.0353 -0.02745,0.0604 -0.139442,0.0558 -0.123765,-0.005 -0.148939,-0.0303 -0.06419,-0.0642 z m 14.342536,0 c 0.0767,-0.0307 0.16832,-0.0269 0.20363,0.008 0.0353,0.0353 -0.0275,0.0604 -0.13944,0.0558 -0.12377,-0.005 -0.14894,-0.0303 -0.0642,-0.0642 z m -13.598849,-0.10624 c 0.07669,-0.0307 0.168326,-0.0269 0.203629,0.008 0.0353,0.0353 -0.02745,0.0604 -0.139442,0.0558 -0.123765,-0.005 -0.148939,-0.0303 -0.06419,-0.0642 z m 12.855159,0 c 0.0767,-0.0307 0.16833,-0.0269 0.20363,0.008 0.0353,0.0353 -0.0275,0.0604 -0.13944,0.0558 -0.12377,-0.005 -0.14894,-0.0303 -0.0642,-0.0642 z m -12.011871,-0.10402 c 0.07304,-0.0295 0.192562,-0.0295 0.265602,0 0.07304,0.0295 0.01328,0.0536 -0.132801,0.0536 -0.146081,0 -0.205842,-0.0241 -0.132801,-0.0536 z m 11.049061,0 c 0.073,-0.0295 0.19256,-0.0295 0.26561,0 0.073,0.0295 0.0133,0.0536 -0.13281,0.0536 -0.14608,0 -0.20584,-0.0241 -0.1328,-0.0536 z m -10.03775,-0.10951 c 0.103369,-0.0269 0.246795,-0.0252 0.318723,0.004 0.07193,0.0291 -0.01265,0.0511 -0.187943,0.049 -0.175298,-0.002 -0.234149,-0.026 -0.13078,-0.0529 z m 8.97534,0.003 c 0.073,-0.0295 0.19256,-0.0295 0.26561,0 0.073,0.0295 0.0133,0.0536 -0.13281,0.0536 -0.14608,0 -0.20584,-0.0241 -0.1328,-0.0536 z m -7.596229,-0.10911 c 0.102257,-0.0267 0.269587,-0.0267 0.371844,0 0.102257,0.0267 0.01859,0.0486 -0.185922,0.0486 -0.204514,0 -0.288179,-0.0219 -0.185922,-0.0486 z m 6.110099,-0.002 c 0.13215,-0.0254 0.32339,-0.0245 0.42496,0.002 0.10158,0.0266 -0.007,0.0474 -0.24028,0.0462 -0.23373,-0.001 -0.31684,-0.0229 -0.18468,-0.0483 z m -3.450195,-0.10973 c 0.338125,-0.0211 0.864015,-0.0209 1.168655,4.2e-4 0.30463,0.0214 0.028,0.0387 -0.61477,0.0384 -0.642757,-2.1e-4 -0.892005,-0.0177 -0.553885,-0.0389 z"
           id="path4183" />
        <path
           style="fill:#001c3a;stroke-width:0.106241"
           d="m 99.780817,200.87024 c 0.306773,-0.0215 0.808763,-0.0215 1.115533,0 0.30677,0.0215 0.0558,0.039 -0.55777,0.039 -0.61354,0 -0.864534,-0.0175 -0.557763,-0.039 z m -2.549784,-0.10477 c 0.189906,-0.0236 0.50066,-0.0236 0.690566,0 0.189906,0.0236 0.03453,0.0428 -0.345283,0.0428 -0.379812,0 -0.535189,-0.0193 -0.345283,-0.0428 z m 5.526437,0 c 0.19095,-0.0237 0.4778,-0.0232 0.63744,0.001 0.15965,0.0242 0.003,0.0436 -0.34718,0.043 -0.3506,-0.001 -0.48121,-0.0204 -0.29026,-0.0441 z m -6.906331,-0.1044 c 0.132154,-0.0254 0.323388,-0.0244 0.424964,0.002 0.101575,0.0266 -0.0066,0.0474 -0.240282,0.0462 -0.23373,-0.001 -0.316837,-0.0229 -0.184682,-0.0483 z m 8.605521,0 c 0.13215,-0.0254 0.32339,-0.0244 0.42496,0.002 0.10158,0.0266 -0.007,0.0474 -0.24028,0.0462 -0.23373,-0.001 -0.31683,-0.0229 -0.18468,-0.0483 z m -9.722291,-0.10432 c 0.102257,-0.0267 0.269587,-0.0267 0.371844,0 0.102257,0.0267 0.01859,0.0486 -0.185922,0.0486 -0.204514,0 -0.288179,-0.0219 -0.185922,-0.0486 z m 10.836581,0 c 0.10226,-0.0267 0.26959,-0.0267 0.37184,0 0.10226,0.0267 0.0186,0.0486 -0.18592,0.0486 -0.20451,0 -0.28818,-0.0219 -0.18592,-0.0486 z m -11.684487,-0.10664 c 0.103369,-0.0269 0.246795,-0.0252 0.318723,0.004 0.07193,0.0291 -0.01265,0.0511 -0.187943,0.049 -0.175298,-0.002 -0.234149,-0.026 -0.13078,-0.0529 z m 12.587537,0.003 c 0.073,-0.0295 0.19256,-0.0295 0.2656,0 0.073,0.0295 0.0133,0.0536 -0.1328,0.0536 -0.14608,0 -0.20584,-0.0241 -0.1328,-0.0536 z m -13.331224,-0.1095 c 0.103369,-0.0269 0.246795,-0.0252 0.318723,0.004 0.07193,0.0291 -0.01265,0.0511 -0.187944,0.049 -0.175297,-0.002 -0.234148,-0.026 -0.130779,-0.0529 z m 14.130054,0 c 0.10337,-0.0269 0.24679,-0.0252 0.31872,0.004 0.0719,0.0291 -0.0126,0.0511 -0.18794,0.049 -0.1753,-0.002 -0.23415,-0.026 -0.13078,-0.0529 z m -14.822642,-0.10315 c 0.07304,-0.0295 0.192562,-0.0295 0.265602,0 0.07304,0.0295 0.01328,0.0536 -0.132801,0.0536 -0.146081,0 -0.205842,-0.0241 -0.132801,-0.0536 z m 15.511182,0 c 0.073,-0.0295 0.19257,-0.0295 0.26561,0 0.073,0.0295 0.0133,0.0536 -0.1328,0.0536 -0.14609,0 -0.20585,-0.0241 -0.13281,-0.0536 z m -16.148628,-0.10624 c 0.07304,-0.0295 0.192562,-0.0295 0.265602,0 0.07304,0.0295 0.01328,0.0536 -0.132801,0.0536 -0.146081,0 -0.205842,-0.0241 -0.132801,-0.0536 z m 16.786078,0 c 0.073,-0.0295 0.19256,-0.0295 0.2656,0 0.073,0.0295 0.0133,0.0536 -0.1328,0.0536 -0.14608,0 -0.20584,-0.0241 -0.1328,-0.0536 z m -17.423524,-0.10624 c 0.07304,-0.0295 0.192562,-0.0295 0.265602,0 0.07304,0.0295 0.01328,0.0536 -0.132801,0.0536 -0.146081,0 -0.205842,-0.0241 -0.132801,-0.0536 z m 18.067614,-0.002 c 0.0767,-0.0307 0.16832,-0.0269 0.20362,0.008 0.0353,0.0353 -0.0274,0.0604 -0.13944,0.0558 -0.12376,-0.005 -0.14894,-0.0303 -0.0642,-0.0642 z M 90.650731,199.9198 c 0.07669,-0.0307 0.168326,-0.0269 0.203629,0.008 0.0353,0.0353 -0.02745,0.0604 -0.139442,0.0558 -0.123765,-0.005 -0.148939,-0.0303 -0.06419,-0.0642 z m 19.116739,0.002 c 0.073,-0.0295 0.19256,-0.0295 0.2656,0 0.073,0.0295 0.0133,0.0536 -0.1328,0.0536 -0.14608,0 -0.20584,-0.0241 -0.1328,-0.0536 z m -19.654584,-0.10624 c 0.07304,-0.0295 0.192562,-0.0295 0.265602,0 0.07304,0.0295 0.01328,0.0536 -0.132801,0.0536 -0.146081,0 -0.205842,-0.0241 -0.132801,-0.0536 z m 20.192434,-0.002 c 0.0767,-0.0307 0.16832,-0.0269 0.20362,0.008 0.0353,0.0353 -0.0274,0.0604 -0.13944,0.0558 -0.12376,-0.005 -0.14894,-0.0303 -0.0642,-0.0642 z m -20.723639,-0.10401 c 0.07304,-0.0295 0.192562,-0.0295 0.265602,0 0.07304,0.0295 0.01328,0.0536 -0.132801,0.0536 -0.146081,0 -0.205842,-0.0241 -0.132801,-0.0536 z m 21.254839,-0.002 c 0.0767,-0.0307 0.16833,-0.0269 0.20363,0.008 0.0353,0.0353 -0.0275,0.0604 -0.13944,0.0558 -0.12377,-0.005 -0.14894,-0.0303 -0.0642,-0.0642 z m -21.673163,-0.10624 c 0.07669,-0.0307 0.168326,-0.0269 0.203629,0.008 0.0353,0.0353 -0.02745,0.0604 -0.139442,0.0558 -0.123765,-0.005 -0.148939,-0.0303 -0.06419,-0.0642 z m 22.204373,0 c 0.0767,-0.0307 0.16832,-0.0269 0.20362,0.008 0.0353,0.0353 -0.0274,0.0604 -0.13944,0.0558 -0.12376,-0.005 -0.14894,-0.0303 -0.0642,-0.0642 z m -22.629337,-0.10625 c 0.07669,-0.0307 0.168326,-0.0269 0.203629,0.008 0.0353,0.0353 -0.02745,0.0604 -0.139442,0.0558 -0.123765,-0.005 -0.148939,-0.0303 -0.06419,-0.0642 z m 23.054297,0 c 0.0767,-0.0307 0.16833,-0.0269 0.20363,0.008 0.0353,0.0353 -0.0275,0.0604 -0.13944,0.0558 -0.12377,-0.005 -0.14894,-0.0303 -0.0642,-0.0642 z m -23.479261,-0.10624 c 0.07669,-0.0307 0.168326,-0.0269 0.203629,0.008 0.0353,0.0353 -0.02745,0.0604 -0.139442,0.0558 -0.123765,-0.005 -0.148939,-0.0303 -0.06419,-0.0642 z m 23.904221,0 c 0.0767,-0.0307 0.16833,-0.0269 0.20363,0.008 0.0353,0.0353 -0.0274,0.0604 -0.13944,0.0558 -0.12376,-0.005 -0.14894,-0.0303 -0.0642,-0.0642 z m 0.42497,-0.10624 c 0.0767,-0.0307 0.16832,-0.0269 0.20363,0.008 0.0353,0.0353 -0.0275,0.0604 -0.13944,0.0558 -0.12377,-0.005 -0.14894,-0.0303 -0.0642,-0.0642 z m -25.179119,-0.10624 c 0.07669,-0.0307 0.168326,-0.0269 0.203629,0.008 0.0353,0.0353 -0.02745,0.0604 -0.139442,0.0558 -0.123765,-0.005 -0.148939,-0.0303 -0.06419,-0.0642 z m -0.743687,-0.21248 c 0.07669,-0.0307 0.168326,-0.0269 0.203629,0.008 0.0353,0.0353 -0.02745,0.0604 -0.139442,0.0558 -0.123765,-0.005 -0.148939,-0.0303 -0.06419,-0.0642 z m 27.091456,0 c 0.0767,-0.0307 0.16832,-0.0269 0.20363,0.008 0.0353,0.0353 -0.0275,0.0604 -0.13944,0.0558 -0.12377,-0.005 -0.14894,-0.0303 -0.0642,-0.0642 z m 1.06241,-0.31872 c 0.0767,-0.0307 0.16832,-0.0269 0.20363,0.008 0.0353,0.0353 -0.0275,0.0604 -0.13944,0.0558 -0.12377,-0.005 -0.14894,-0.0303 -0.0642,-0.0642 z m -32.489827,-1.09606 c -0.08765,-0.0566 -0.111553,-0.10299 -0.05312,-0.10299 0.05843,0 0.177953,0.0463 0.265602,0.10299 0.08765,0.0567 0.111553,0.10299 0.05312,0.10299 -0.05843,0 -0.177954,-0.0463 -0.265602,-0.10299 z m 37.715557,-0.84993 c 0.0876,-0.0566 0.20717,-0.10299 0.2656,-0.10299 0.0584,0 0.0345,0.0463 -0.0531,0.10299 -0.0877,0.0567 -0.20717,0.10299 -0.2656,0.10299 -0.0584,0 -0.0345,-0.0463 0.0531,-0.10299 z m -40.265341,-0.21248 c -0.08765,-0.0566 -0.111553,-0.10299 -0.05312,-0.10299 0.05843,0 0.177953,0.0463 0.265602,0.10299 0.08765,0.0567 0.111553,0.10299 0.05312,0.10299 -0.05843,0 -0.177953,-0.0463 -0.265602,-0.10299 z m 41.327751,-0.2656 c 0.14608,-0.0835 0.31341,-0.15183 0.37184,-0.15183 0.0584,0 -0.0133,0.0683 -0.15936,0.15183 -0.14608,0.0835 -0.31341,0.15183 -0.37184,0.15183 -0.0584,0 0.0133,-0.0683 0.15936,-0.15183 z m 2.01858,-0.95071 c 0,-0.0292 0.14342,-0.1273 0.31872,-0.21794 0.1753,-0.0906 0.31872,-0.14092 0.31872,-0.11171 0,0.0292 -0.14342,0.1273 -0.31872,0.21795 -0.1753,0.0906 -0.31872,0.14092 -0.31872,0.1117 z m -46.592936,-0.43629 c -0.198035,-0.15866 -0.196733,-0.16062 0.03281,-0.0494 0.131473,0.0637 0.239042,0.13806 0.239042,0.16523 0,0.0813 -0.0551,0.0578 -0.271857,-0.11585 z m -1.487374,-0.84992 c -0.198035,-0.15866 -0.196733,-0.16063 0.03281,-0.0494 0.131473,0.0637 0.239042,0.13806 0.239042,0.16523 0,0.0813 -0.0551,0.0578 -0.271857,-0.11584 z m 50.52385,-0.0929 c 0,-0.0292 0.0956,-0.10429 0.21248,-0.16684 0.11687,-0.0625 0.21248,-0.0898 0.21248,-0.0606 0,0.0292 -0.0956,0.10429 -0.21248,0.16684 -0.11686,0.0625 -0.21248,0.0898 -0.21248,0.0606 z m -51.055055,-0.22582 c -0.198035,-0.15866 -0.196733,-0.16062 0.03281,-0.0494 0.131473,0.0637 0.239042,0.13806 0.239042,0.16522 0,0.0813 -0.0551,0.0578 -0.271857,-0.11584 z m 51.586265,-0.0929 c 0,-0.0292 0.0956,-0.10429 0.21248,-0.16684 0.11686,-0.0625 0.21248,-0.0898 0.21248,-0.0606 0,0.0292 -0.0956,0.1043 -0.21248,0.16684 -0.11687,0.0626 -0.21248,0.0898 -0.21248,0.0606 z m 2.76226,-1.80057 c 0,-0.0221 0.0837,-0.10572 0.18592,-0.18592 0.16851,-0.13215 0.17227,-0.12839 0.0401,0.0401 -0.13879,0.17698 -0.22604,0.23325 -0.22604,0.14581 z m 0.42496,-0.31872 c 0,-0.0221 0.0837,-0.10573 0.18593,-0.18592 0.1685,-0.13215 0.17226,-0.12839 0.0401,0.0401 -0.13879,0.17697 -0.22604,0.23325 -0.22604,0.14581 z m -58.552338,-0.35829 c -0.13215,-0.16851 -0.128392,-0.17226 0.04011,-0.0401 0.102257,0.0802 0.185922,0.16386 0.185922,0.18592 0,0.0874 -0.08724,0.0312 -0.226034,-0.14581 z m 58.977308,0.0396 c 0,-0.0221 0.0837,-0.10573 0.18592,-0.18592 0.16851,-0.13215 0.17226,-0.1284 0.0401,0.0401 -0.13879,0.17697 -0.22603,0.23325 -0.22603,0.14581 z m -14.95369,-1.42503 c -0.59908,-0.56734 -1.08912,-1.11583 -1.08897,-1.21887 10e-5,-0.10304 0.55007,-1.56637 1.22204,-3.25185 0.67197,-1.68548 1.22177,-3.11641 1.22177,-3.17985 0,-0.0634 -0.43882,0.0794 -0.97515,0.3175 -0.75216,0.33386 -1.03065,0.41145 -1.21786,0.33932 -0.13349,-0.0514 -1.2604,-1.01981 -2.50424,-2.15195 -3.17374,-2.88872 -3.16458,-2.87978 -3.16458,-3.09115 0,-0.10463 0.16733,-0.65249 0.37184,-1.21747 0.20451,-0.56498 0.37184,-1.06937 0.37184,-1.12087 0,-0.0515 -1.45167,0.64409 -3.22595,1.54576 -1.77427,0.90168 -3.32351,1.63941 -3.44275,1.63941 -0.24567,0 -2.36178,-1.84826 -2.36178,-2.06284 0,-0.0757 0.94866,-1.56954 2.10813,-3.31971 1.15948,-1.75016 2.36154,-3.5968 2.67126,-4.10364 0.47885,-0.7836 0.61252,-0.92954 0.89318,-0.97511 0.18152,-0.0295 1.23841,-0.17472 2.34862,-0.32276 3.11131,-0.4149 4.87952,-0.69164 4.94661,-0.77419 0.0336,-0.0413 0.34152,-0.55322 0.68432,-1.13755 1.99335,-3.39788 4.11207,-6.09175 6.62148,-8.41893 1.76608,-1.63784 2.48393,-2.24172 3.63062,-3.05426 1.05189,-0.74536 3.84363,-2.17878 4.24341,-2.17878 0.15248,0 1.22545,0.90584 3.17275,2.67855 6.3864,5.81384 6.60769,6.02594 6.60716,6.3325 -5.3e-4,0.30635 -0.97178,2.38305 -1.70783,3.65164 -2.40974,4.15323 -6.44768,8.61093 -10.68543,11.79622 -0.80474,0.60489 -0.99714,0.80369 -1.04167,1.07635 -0.03,0.18393 -0.12846,1.81649 -0.21873,3.6279 -0.0903,1.8114 -0.18666,3.4383 -0.21419,3.61533 -0.0417,0.26813 -0.26727,0.48033 -1.3511,1.27106 -2.19323,1.60012 -4.54926,3.33974 -5.48675,4.05125 -0.49074,0.37244 -0.99273,0.67522 -1.11553,0.67284 -0.1331,-0.003 -0.66325,-0.42098 -1.31252,-1.03585 z m 13.70256,-22.94763 c 0.81711,-0.40259 1.42511,-1.03179 1.85707,-1.92183 0.2489,-0.51286 0.29048,-0.73324 0.29354,-1.5559 0.003,-0.87219 -0.0278,-1.02208 -0.34496,-1.66637 -0.58103,-1.18022 -1.60087,-1.94278 -2.9544,-2.20907 -1.64877,-0.32438 -3.48817,0.63508 -4.27019,2.2274 -0.2569,0.52308 -0.28829,0.70495 -0.28484,1.65028 0.005,1.26676 0.19578,1.78314 0.96417,2.60461 0.92974,0.99396 1.6377,1.28075 3.07191,1.24438 0.84213,-0.0214 1.04532,-0.0669 1.6677,-0.3735 z m -58.682347,23.5894 c -0.13215,-0.1685 -0.128392,-0.17226 0.04011,-0.0401 0.102257,0.0802 0.185922,0.16386 0.185922,0.18592 0,0.0874 -0.08724,0.0312 -0.226034,-0.14581 z m 60.889647,0.0396 c 0,-0.0221 0.0837,-0.10573 0.18592,-0.18592 0.1685,-0.13215 0.17226,-0.12839 0.0401,0.0401 -0.13879,0.17697 -0.22603,0.23325 -0.22603,0.14581 z m -61.420852,-0.46453 c -0.13215,-0.16851 -0.128392,-0.17226 0.04011,-0.0401 0.176971,0.13879 0.23325,0.22603 0.14581,0.22603 -0.02206,0 -0.105726,-0.0837 -0.185922,-0.18592 z m 61.952052,0.0396 c 0,-0.0221 0.0837,-0.10573 0.18592,-0.18593 0.16851,-0.13215 0.17227,-0.12839 0.0401,0.0401 -0.13879,0.17697 -0.22604,0.23325 -0.22604,0.14581 z m -62.532919,-0.51766 -0.202389,-0.23904 0.239043,0.20239 c 0.22464,0.19019 0.287407,0.2757 0.202388,0.2757 -0.02016,0 -0.12773,-0.10757 -0.239042,-0.23905 z m 63.329729,-0.18592 c 0.10576,-0.11686 0.2162,-0.21248 0.24542,-0.21248 0.0292,0 -0.0334,0.0956 -0.13918,0.21248 -0.10576,0.11687 -0.2162,0.21248 -0.24541,0.21248 -0.0292,0 0.0334,-0.0956 0.13917,-0.21248 z m -64.124484,-0.50464 -0.257561,-0.29217 0.292162,0.25757 c 0.27307,0.24073 0.340884,0.32676 0.257561,0.32676 -0.01903,0 -0.150503,-0.13147 -0.292162,-0.29216 z m 64.921294,-0.18592 c 0.13723,-0.14609 0.27342,-0.26561 0.30264,-0.26561 0.0292,0 -0.0592,0.11952 -0.1964,0.26561 -0.13724,0.14608 -0.27343,0.2656 -0.30264,0.2656 -0.0292,0 0.0592,-0.11952 0.1964,-0.2656 z M 66.872667,187.8278 c -0.258063,-0.26295 -0.445301,-0.47809 -0.416084,-0.47809 0.02922,0 0.264262,0.21514 0.522325,0.47809 0.258063,0.26294 0.445301,0.47808 0.416084,0.47808 -0.02922,0 -0.264262,-0.21514 -0.522325,-0.47808 z m 68.099003,-1.24833 c 1.33096,-1.357 1.48885,-1.50895 1.48885,-1.43278 0,0.0154 -0.65736,0.67279 -1.46081,1.46081 l -1.46082,1.43278 z m -26.29985,0.90266 c 0.17162,-0.18969 0.36285,-0.34112 0.42496,-0.33651 0.0621,0.005 0.0529,0.0326 -0.0205,0.0622 -0.0734,0.0296 -0.10159,0.10949 -0.0627,0.17754 0.0389,0.068 0.0309,0.0874 -0.018,0.0431 -0.0489,-0.0444 -0.2119,0.0272 -0.36232,0.15898 -0.22215,0.19465 -0.21491,0.17488 0.0386,-0.10527 z m -44.300815,-2.17756 -0.419966,-0.45152 0.451525,0.41997 c 0.248338,0.23098 0.451524,0.43416 0.451524,0.45152 0,0.0804 -0.09252,-5e-5 -0.483083,-0.41997 z m 72.673845,-0.9296 c 0.10576,-0.11687 0.2162,-0.21249 0.24541,-0.21249 0.0292,0 -0.0334,0.0956 -0.13917,0.21249 -0.10576,0.11686 -0.2162,0.21248 -0.24542,0.21248 -0.0292,0 0.0334,-0.0956 0.13918,-0.21248 z m -73.635109,-0.13281 -0.202389,-0.23904 0.239043,0.20239 c 0.131473,0.11131 0.239042,0.21888 0.239042,0.23904 0,0.085 -0.0855,0.0223 -0.275696,-0.20239 z m 74.272549,-0.61088 c 0.10577,-0.11687 0.2162,-0.21248 0.24542,-0.21248 0.0292,0 -0.0334,0.0956 -0.13918,0.21248 -0.10576,0.11686 -0.21619,0.21248 -0.24541,0.21248 -0.0292,0 0.0334,-0.0956 0.13917,-0.21248 z m -74.966574,-0.18592 c -0.13215,-0.16851 -0.128392,-0.17227 0.04011,-0.0401 0.176971,0.13879 0.23325,0.22604 0.14581,0.22604 -0.02206,0 -0.105726,-0.0837 -0.185922,-0.18592 z m 50.839774,-0.26561 -0.20239,-0.23904 0.23905,0.20239 c 0.13147,0.11131 0.23904,0.21888 0.23904,0.23904 0,0.085 -0.0855,0.0223 -0.2757,-0.20239 z m -9.39223,-0.0136 c 0,-0.0221 0.0837,-0.10572 0.18592,-0.18592 0.1685,-0.13215 0.17226,-0.12839 0.0401,0.0401 -0.13879,0.17697 -0.22603,0.23325 -0.22603,0.14581 z m -41.92217,-0.30517 -0.202388,-0.23904 0.239042,0.20239 c 0.22464,0.19019 0.287407,0.27569 0.202388,0.27569 -0.02016,0 -0.12773,-0.10757 -0.239042,-0.23904 z M 138.4791,182.635 c 0,-0.0221 0.0837,-0.10573 0.18592,-0.18592 0.16851,-0.13215 0.17227,-0.1284 0.0401,0.0401 -0.13879,0.17697 -0.22604,0.23325 -0.22604,0.14581 z m -76.613312,-0.25205 c -0.13215,-0.16851 -0.128392,-0.17227 0.04011,-0.0401 0.176971,0.13879 0.23325,0.22604 0.14581,0.22604 -0.02206,0 -0.105726,-0.0837 -0.185922,-0.18592 z m 77.038272,-0.27916 c 0,-0.0221 0.0837,-0.10572 0.18593,-0.18592 0.1685,-0.13215 0.17226,-0.12839 0.0401,0.0401 -0.13879,0.17697 -0.22604,0.23325 -0.22604,0.14581 z m -77.463236,-0.25205 c -0.13215,-0.1685 -0.128392,-0.17226 0.04011,-0.0401 0.176971,0.13879 0.23325,0.22603 0.14581,0.22603 -0.02206,0 -0.105726,-0.0837 -0.185922,-0.18592 z m 43.764926,-0.0991 c 0.0767,-0.0307 0.16832,-0.0269 0.20363,0.008 0.0353,0.0353 -0.0275,0.0604 -0.13944,0.0558 -0.12377,-0.005 -0.14894,-0.0303 -0.0642,-0.0642 z m 34.01704,-0.0738 c 0,-0.0221 0.0837,-0.10573 0.18592,-0.18592 0.1685,-0.13215 0.17226,-0.1284 0.0401,0.0401 -0.13879,0.17697 -0.22603,0.23325 -0.22603,0.14581 z m -78.100689,-0.25205 c -0.13215,-0.16851 -0.128392,-0.17226 0.04011,-0.0401 0.176971,0.13879 0.23325,0.22603 0.14581,0.22603 -0.02206,0 -0.105726,-0.0837 -0.185922,-0.18592 z m 43.572359,-0.9166 c 0,-0.0221 0.0837,-0.10573 0.18592,-0.18592 0.16851,-0.13215 0.17227,-0.1284 0.0401,0.0401 -0.13879,0.17697 -0.22604,0.23325 -0.22604,0.14581 z m -46.108591,-2.8284 c -0.06254,-0.11686 -0.08981,-0.21248 -0.0606,-0.21248 0.02922,0 0.104293,0.0956 0.166837,0.21248 0.06254,0.11687 0.08981,0.21249 0.0606,0.21249 -0.02922,0 -0.104293,-0.0956 -0.166837,-0.21249 z m -0.743687,-1.27489 c -0.06254,-0.11686 -0.08981,-0.21248 -0.0606,-0.21248 0.02922,0 0.104293,0.0956 0.166837,0.21248 0.06254,0.11687 0.08981,0.21248 0.0606,0.21248 -0.02922,0 -0.104293,-0.0956 -0.166837,-0.21248 z m -0.637446,-1.16865 c -0.06254,-0.11687 -0.08981,-0.21248 -0.0606,-0.21248 0.02922,0 0.104293,0.0956 0.166837,0.21248 0.06254,0.11687 0.08981,0.21248 0.0606,0.21248 -0.02922,0 -0.104293,-0.0956 -0.166837,-0.21248 z m -0.889924,-1.75708 c -0.10252,-0.26717 -0.07228,-0.3361 0.05296,-0.12073 0.06201,0.10664 0.09037,0.21627 0.06302,0.24362 -0.02735,0.0274 -0.07954,-0.028 -0.11598,-0.12289 z m -0.531205,-1.16865 c -0.10252,-0.26717 -0.07228,-0.3361 0.05296,-0.12073 0.06201,0.10664 0.09037,0.21627 0.06302,0.24362 -0.02735,0.0274 -0.07954,-0.0279 -0.11598,-0.12289 z m -0.318723,-0.74369 c -0.10252,-0.26716 -0.07228,-0.3361 0.05297,-0.12073 0.06201,0.10664 0.09037,0.21627 0.06302,0.24363 -0.02735,0.0273 -0.07954,-0.028 -0.11598,-0.1229 z m -1.970196,-5.74176 c 0.0051,-0.12377 0.03027,-0.14894 0.06419,-0.0642 0.03069,0.0767 0.02692,0.16833 -0.0084,0.20363 -0.0353,0.0353 -0.06041,-0.0274 -0.0558,-0.13944 z m -0.106241,-0.42497 c 0.0051,-0.12376 0.03027,-0.14893 0.06419,-0.0642 0.03069,0.0767 0.02692,0.16832 -0.0084,0.20363 -0.0353,0.0353 -0.06041,-0.0274 -0.0558,-0.13945 z m -0.106241,-0.42496 c 0.0051,-0.12377 0.03027,-0.14894 0.06419,-0.0642 0.03069,0.0767 0.02692,0.16833 -0.0084,0.20363 -0.0353,0.0353 -0.06041,-0.0274 -0.0558,-0.13944 z m -0.212482,-0.84993 c 0.0051,-0.12376 0.03027,-0.14894 0.06419,-0.0642 0.03069,0.0767 0.02691,0.16833 -0.0084,0.20363 -0.0353,0.0353 -0.06041,-0.0274 -0.0558,-0.13944 z m -0.212482,-0.95617 c 0.0051,-0.12376 0.03027,-0.14894 0.06419,-0.0642 0.03069,0.0767 0.02692,0.16832 -0.0084,0.20362 -0.0353,0.0353 -0.06041,-0.0274 -0.0558,-0.13944 z m -0.106241,-0.5312 c 0.0051,-0.12377 0.03027,-0.14894 0.06419,-0.0642 0.03069,0.0767 0.02692,0.16833 -0.0084,0.20363 -0.0353,0.0353 -0.06041,-0.0274 -0.0558,-0.13944 z m -0.106241,-0.53121 c 0.0051,-0.12376 0.03027,-0.14894 0.06419,-0.0642 0.03069,0.0767 0.02692,0.16832 -0.0084,0.20362 -0.0353,0.0353 -0.06041,-0.0274 -0.0558,-0.13944 z m 95.29818,-0.21248 c 0.005,-0.12376 0.0303,-0.14894 0.0642,-0.0642 0.0307,0.0767 0.0269,0.16833 -0.008,0.20363 -0.0353,0.0353 -0.0604,-0.0274 -0.0558,-0.13944 z m -95.404421,-0.42496 c 0.0051,-0.12377 0.03027,-0.14894 0.06419,-0.0642 0.03069,0.0767 0.02691,0.16833 -0.0084,0.20363 -0.0353,0.0353 -0.06041,-0.0275 -0.0558,-0.13944 z m 95.510661,-0.10624 c 0.005,-0.12377 0.0303,-0.14894 0.0642,-0.0642 0.0307,0.0767 0.0269,0.16832 -0.008,0.20363 -0.0353,0.0353 -0.0604,-0.0274 -0.0558,-0.13944 z m -95.608514,-0.46923 c 0,-0.14609 0.02411,-0.20585 0.05359,-0.13281 0.02947,0.073 0.02947,0.19257 0,0.26561 -0.02947,0.073 -0.05359,0.0133 -0.05359,-0.1328 z m 95.714754,-0.27446 c 0.005,-0.12377 0.0303,-0.14894 0.0642,-0.0642 0.0307,0.0767 0.0269,0.16833 -0.008,0.20363 -0.0353,0.0353 -0.0604,-0.0275 -0.0558,-0.13944 z m -95.820995,-0.46923 c 0,-0.14608 0.02411,-0.20584 0.05359,-0.1328 0.02947,0.073 0.02947,0.19256 0,0.2656 -0.02947,0.073 -0.05359,0.0133 -0.05359,-0.1328 z m 95.927235,-0.27446 c 0.005,-0.12376 0.0303,-0.14894 0.0642,-0.0642 0.0307,0.0767 0.0269,0.16833 -0.008,0.20363 -0.0353,0.0353 -0.0604,-0.0274 -0.0558,-0.13944 z m -96.029539,-0.52235 c 0.0022,-0.1753 0.02598,-0.23415 0.05291,-0.13078 0.02694,0.10337 0.02517,0.2468 -0.0039,0.31872 -0.0291,0.0719 -0.05114,-0.0126 -0.04898,-0.18794 z m 85.651689,-0.24336 c -0.43418,-0.37909 -2.27022,-2.04424 -3.60123,-3.26605 -0.58432,-0.53639 -1.8871,-1.72618 -2.89507,-2.64397 -1.00796,-0.9178 -1.83192,-1.70156 -1.83103,-1.74171 0.005,-0.21593 0.25921,-0.36727 1.11932,-0.66593 3.26074,-1.13223 5.01179,-1.49238 7.37235,-1.51632 l 1.53451,-0.0156 0.0947,0.42496 c 0.0936,0.42022 0.0354,3.53438 -0.0815,4.35588 -0.23651,1.66308 -0.30079,1.99969 -0.69998,3.66531 -0.46516,1.9409 -0.4386,1.90408 -1.01208,1.40338 z m 10.49248,-0.0222 c 0,-0.14608 0.0241,-0.20584 0.0536,-0.1328 0.0295,0.073 0.0295,0.19256 0,0.2656 -0.0295,0.073 -0.0536,0.0133 -0.0536,-0.1328 z m -96.25041,-0.69057 c 0.0022,-0.1753 0.02597,-0.23415 0.05291,-0.13078 0.02694,0.10337 0.02517,0.2468 -0.0039,0.31873 -0.0291,0.0719 -0.05114,-0.0126 -0.04898,-0.18795 z m 96.35665,-0.2656 c 0,-0.14608 0.0241,-0.20584 0.0536,-0.1328 0.0295,0.073 0.0295,0.19256 0,0.2656 -0.0295,0.073 -0.0536,0.0133 -0.0536,-0.1328 z m -96.454667,-0.95617 c 0,-0.26295 0.02072,-0.37052 0.04604,-0.23904 0.02532,0.13147 0.02532,0.34661 0,0.47808 -0.02532,0.13148 -0.04604,0.0239 -0.04604,-0.23904 z m 96.570927,-0.37184 c 0.001,-0.23373 0.0229,-0.31684 0.0483,-0.18469 0.0254,0.13216 0.0244,0.32339 -0.002,0.42497 -0.0266,0.10157 -0.0474,-0.007 -0.0462,-0.24028 z m -96.660413,-3.13411 c 0,-1.37317 0.01514,-1.93492 0.03365,-1.24833 0.01851,0.68658 0.01851,1.81008 0,2.49666 -0.0185,0.68658 -0.03365,0.12483 -0.03365,-1.24833 z m 96.781783,0.0531 c 2.1e-4,-0.81806 0.0168,-1.13867 0.0371,-0.71248 0.0202,0.42619 0.0201,1.09551 -3.2e-4,1.48737 -0.0204,0.39187 -0.0369,0.0432 -0.0367,-0.77489 z m -0.12352,-3.13411 c 0,-0.20452 0.0219,-0.28818 0.0486,-0.18592 0.0267,0.10225 0.0267,0.26958 0,0.37184 -0.0267,0.10226 -0.0486,0.0186 -0.0486,-0.18592 z m -96.570921,-0.37185 c 0.0012,-0.23373 0.02294,-0.31683 0.04835,-0.18468 0.02541,0.13216 0.02445,0.32339 -0.0021,0.42497 -0.02659,0.10157 -0.04738,-0.007 -0.0462,-0.24029 z m 96.456811,-0.90304 c 0,-0.14609 0.0241,-0.20585 0.0536,-0.13281 0.0295,0.0731 0.0295,0.19257 0,0.26561 -0.0295,0.073 -0.0536,0.0133 -0.0536,-0.1328 z m -96.352714,-0.31873 c 0,-0.20451 0.02186,-0.28818 0.04859,-0.18592 0.02672,0.10226 0.02672,0.26959 0,0.37184 -0.02672,0.10226 -0.04859,0.0186 -0.04859,-0.18592 z m 96.246474,-0.63744 c 0,-0.14608 0.0241,-0.20584 0.0536,-0.1328 0.0295,0.073 0.0295,0.19256 0,0.2656 -0.0295,0.073 -0.0536,0.0133 -0.0536,-0.1328 z m -96.144169,-0.26561 c 0.0022,-0.17529 0.02598,-0.23414 0.05291,-0.13077 0.02694,0.10336 0.02517,0.24679 -0.0039,0.31872 -0.0291,0.0719 -0.05114,-0.0127 -0.04898,-0.18795 z m 96.029539,-0.64629 c 0.005,-0.12377 0.0303,-0.14894 0.0642,-0.0642 0.0307,0.0767 0.0269,0.16832 -0.008,0.20363 -0.0353,0.0353 -0.0604,-0.0275 -0.0558,-0.13944 z m -95.927235,-0.15051 c 0,-0.14608 0.02411,-0.20584 0.05359,-0.1328 0.02947,0.073 0.02947,0.19256 0,0.2656 -0.02947,0.073 -0.05359,0.0133 -0.05359,-0.1328 z m 95.820995,-0.59318 c 0.005,-0.12377 0.0303,-0.14894 0.0642,-0.0642 0.0307,0.0767 0.0269,0.16833 -0.008,0.20363 -0.0353,0.0353 -0.0604,-0.0274 -0.0558,-0.13944 z M 52.440666,146.5532 c 0,-0.14608 0.02411,-0.20584 0.05359,-0.1328 0.02947,0.073 0.02947,0.19256 0,0.2656 -0.02947,0.073 -0.05359,0.0133 -0.05359,-0.1328 z m 95.608514,-0.48694 c 0.005,-0.12376 0.0303,-0.14894 0.0642,-0.0642 0.0307,0.0767 0.0269,0.16833 -0.008,0.20363 -0.0353,0.0353 -0.0604,-0.0274 -0.0558,-0.13944 z m -95.502273,-0.15051 c 0,-0.14608 0.02411,-0.20584 0.05359,-0.1328 0.02947,0.073 0.02947,0.19256 0,0.26561 -0.02947,0.073 -0.05359,0.0133 -0.05359,-0.13281 z m 0.09785,-0.59317 c 0.0051,-0.12377 0.03027,-0.14894 0.06419,-0.0642 0.03069,0.0767 0.02692,0.16832 -0.0084,0.20363 -0.0353,0.0353 -0.06041,-0.0274 -0.0558,-0.13944 z m 95.191943,-0.42497 c 0.005,-0.12376 0.0303,-0.14894 0.0642,-0.0642 0.0307,0.0767 0.0269,0.16833 -0.008,0.20363 -0.0353,0.0353 -0.0604,-0.0274 -0.0558,-0.13944 z M 52.759386,144.7471 c 0,-0.14608 0.02411,-0.20584 0.05359,-0.1328 0.02947,0.073 0.02947,0.19256 0,0.2656 -0.02947,0.073 -0.05359,0.0133 -0.05359,-0.1328 z m 94.971074,-0.38069 c 0.005,-0.12377 0.0303,-0.14894 0.0642,-0.0642 0.0307,0.0767 0.0269,0.16832 -0.008,0.20363 -0.0353,0.0353 -0.0604,-0.0274 -0.0558,-0.13944 z m -94.873221,-0.10624 c 0.0051,-0.12377 0.03027,-0.14894 0.06419,-0.0642 0.03069,0.0767 0.02692,0.16832 -0.0084,0.20363 -0.0353,0.0353 -0.06041,-0.0274 -0.0558,-0.13944 z m 0.106241,-0.53121 c 0.0051,-0.12377 0.03027,-0.14894 0.06419,-0.0642 0.03069,0.0767 0.02692,0.16833 -0.0084,0.20363 -0.0353,0.0353 -0.06041,-0.0274 -0.0558,-0.13944 z m 94.55449,-0.31872 c 0.005,-0.12377 0.0303,-0.14894 0.0642,-0.0642 0.0307,0.0767 0.0269,0.16833 -0.008,0.20363 -0.0353,0.0353 -0.0604,-0.0275 -0.0558,-0.13944 z M 53.069721,143.304 c 0.0051,-0.12377 0.03027,-0.14894 0.06419,-0.0642 0.03069,0.0767 0.02691,0.16832 -0.0084,0.20363 -0.0353,0.0353 -0.06041,-0.0274 -0.0558,-0.13944 z m 0.424964,-1.69986 c 0.0051,-0.12377 0.03027,-0.14894 0.06419,-0.0642 0.03069,0.0767 0.02692,0.16833 -0.0084,0.20363 -0.0353,0.0353 -0.06041,-0.0274 -0.0558,-0.13944 z m 0.951036,-3.07214 c 0,-0.0584 0.04634,-0.17795 0.102987,-0.2656 0.05664,-0.0876 0.102987,-0.11155 0.102987,-0.0531 0,0.0584 -0.04634,0.17796 -0.102987,0.2656 -0.05664,0.0876 -0.102987,0.11156 -0.102987,0.0531 z m 0.637446,-1.69985 c 0,-0.0584 0.04634,-0.17796 0.102987,-0.2656 0.05664,-0.0876 0.102987,-0.11156 0.102987,-0.0531 0,0.0584 -0.04634,0.17795 -0.102987,0.2656 -0.05664,0.0876 -0.102987,0.11155 -0.102987,0.0531 z m 0.531205,-1.27489 c 0,-0.0584 0.04634,-0.17796 0.102987,-0.26561 0.05664,-0.0876 0.102987,-0.11155 0.102987,-0.0531 0,0.0584 -0.04634,0.17796 -0.102987,0.26561 -0.05664,0.0876 -0.102987,0.11155 -0.102987,0.0531 z m 0.531205,-1.16865 c 0,-0.0584 0.04634,-0.17796 0.102987,-0.26561 0.05664,-0.0876 0.102987,-0.11155 0.102987,-0.0531 0,0.0584 -0.04634,0.17796 -0.102987,0.2656 -0.05664,0.0876 -0.102987,0.11156 -0.102987,0.0531 z m 1.802843,-3.55908 c 0.06254,-0.11686 0.137621,-0.21248 0.166837,-0.21248 0.02922,0 0.0019,0.0956 -0.0606,0.21248 -0.06254,0.11687 -0.137621,0.21248 -0.166837,0.21248 -0.02922,0 -0.0019,-0.0956 0.0606,-0.21248 z m 3.718435,-5.56464 c 0,-0.0221 0.08367,-0.10573 0.185922,-0.18592 0.168504,-0.13215 0.172262,-0.1284 0.04011,0.0401 -0.13879,0.17697 -0.226034,0.23325 -0.226034,0.14581 z m 77.011175,-0.25205 c -0.13215,-0.16851 -0.12839,-0.17227 0.0401,-0.0401 0.17697,0.13879 0.23325,0.22604 0.14581,0.22604 -0.0221,0 -0.10572,-0.0837 -0.18592,-0.18592 z m -76.586211,-0.27916 c 0,-0.0221 0.08366,-0.10572 0.185922,-0.18592 0.168504,-0.13215 0.172262,-0.12839 0.04011,0.0401 -0.13879,0.17697 -0.226034,0.23325 -0.226034,0.14581 z m 76.161251,-0.25205 c -0.13215,-0.1685 -0.1284,-0.17226 0.0401,-0.0401 0.10226,0.0802 0.18592,0.16386 0.18592,0.18592 0,0.0874 -0.0872,0.0312 -0.22603,-0.14581 z m -75.736287,-0.27915 c 0,-0.0221 0.08366,-0.10573 0.185922,-0.18592 0.168504,-0.13215 0.172262,-0.1284 0.04011,0.0401 -0.13879,0.17697 -0.226034,0.23325 -0.226034,0.14581 z M 137.8281,123.9504 c -0.13215,-0.16851 -0.12839,-0.17227 0.0401,-0.0401 0.17697,0.13879 0.23325,0.22604 0.1458,0.22604 -0.0221,0 -0.10572,-0.0837 -0.18592,-0.18592 z m -74.620748,-0.55777 c 0.105762,-0.11686 0.216199,-0.21248 0.245415,-0.21248 0.02922,0 -0.03341,0.0956 -0.139173,0.21248 -0.105762,0.11687 -0.216199,0.21248 -0.245415,0.21248 -0.02922,0 0.03341,-0.0956 0.139173,-0.21248 z m 73.933638,-0.23904 -0.20238,-0.23904 0.23904,0.20239 c 0.13147,0.11131 0.23904,0.21888 0.23904,0.23904 0,0.085 -0.0855,0.0222 -0.2757,-0.20239 z m -73.030589,-0.77025 c 0.198222,-0.20451 0.384309,-0.37184 0.413525,-0.37184 0.02922,0 -0.109062,0.16733 -0.307284,0.37184 -0.198222,0.20452 -0.384309,0.37185 -0.413525,0.37185 -0.02922,0 0.109062,-0.16733 0.307284,-0.37185 z m 72.077839,-0.29216 -0.31204,-0.34528 0.34528,0.31204 c 0.18991,0.17162 0.34528,0.327 0.34528,0.34528 0,0.0821 -0.0877,0.01 -0.37852,-0.31204 z m -70.324863,-1.56706 c 0.105762,-0.11686 0.216199,-0.21248 0.245415,-0.21248 0.02922,0 -0.03341,0.0956 -0.139174,0.21248 -0.105761,0.11687 -0.216198,0.21249 -0.245414,0.21249 -0.02922,0 0.03341,-0.0956 0.139173,-0.21249 z m 67.776763,-0.98272 -0.41997,-0.45153 0.45153,0.41997 c 0.41991,0.39056 0.50034,0.48308 0.41996,0.48308 -0.0174,0 -0.22054,-0.20319 -0.45152,-0.45152 z m -66.44875,-0.23905 c 0.198222,-0.20451 0.384309,-0.37184 0.413525,-0.37184 0.02922,0 -0.109062,0.16733 -0.307284,0.37184 -0.198222,0.20452 -0.384309,0.37185 -0.413525,0.37185 -0.02922,0 0.109062,-0.16733 0.307284,-0.37185 z m 65.33017,-0.77024 -0.25756,-0.29217 0.29217,0.25756 c 0.16068,0.14166 0.29216,0.27314 0.29216,0.29217 0,0.0833 -0.086,0.0155 -0.32677,-0.25756 z m -64.374001,-0.0797 c 0.137237,-0.14609 0.273425,-0.26561 0.302641,-0.26561 0.02922,0 -0.05916,0.11952 -0.1964,0.26561 -0.137237,0.14608 -0.273425,0.2656 -0.302641,0.2656 -0.02922,0 0.05916,-0.11952 0.1964,-0.2656 z m 63.624811,-0.55777 c -0.13215,-0.1685 -0.1284,-0.17226 0.0401,-0.0401 0.10226,0.0802 0.18592,0.16386 0.18592,0.18592 0,0.0874 -0.0872,0.0312 -0.22603,-0.14581 z m -62.987365,0.0396 c 0,-0.0221 0.08366,-0.10573 0.185922,-0.18592 0.168504,-0.13215 0.172262,-0.1284 0.04011,0.0401 -0.13879,0.17697 -0.226034,0.23325 -0.226034,0.14581 z m 62.456155,-0.46453 c -0.13215,-0.16851 -0.12839,-0.17227 0.0401,-0.0401 0.10226,0.0802 0.18592,0.16386 0.18592,0.18593 0,0.0874 -0.0872,0.0312 -0.22603,-0.14581 z M 69.475571,117.3369 c 0.105762,-0.11686 0.216199,-0.21248 0.245415,-0.21248 0.02922,0 -0.03341,0.0956 -0.139174,0.21248 -0.105761,0.11687 -0.216198,0.21249 -0.245414,0.21249 -0.02922,0 0.03341,-0.0956 0.139173,-0.21249 z m 61.234389,-0.29216 c -0.13215,-0.1685 -0.1284,-0.17226 0.0401,-0.0401 0.17697,0.13879 0.23325,0.22603 0.14581,0.22603 -0.0221,0 -0.10573,-0.0837 -0.18592,-0.18592 z m -60.862545,0.0396 c 0,-0.0221 0.08366,-0.10573 0.185922,-0.18592 0.168504,-0.13215 0.172262,-0.12839 0.04011,0.0401 -0.13879,0.17697 -0.226034,0.23325 -0.226034,0.14581 z m 0.956169,-0.74369 c 0,-0.0221 0.08366,-0.10572 0.185922,-0.18592 0.168504,-0.13215 0.172262,-0.12839 0.04011,0.0401 -0.13879,0.17698 -0.226034,0.23325 -0.226034,0.14581 z m 6.799424,-4.25517 c 0,-0.0292 0.09562,-0.10429 0.212482,-0.16684 0.116865,-0.0625 0.212482,-0.0898 0.212482,-0.0606 0,0.0292 -0.09562,0.10429 -0.212482,0.16684 -0.116865,0.0625 -0.212482,0.0898 -0.212482,0.0606 z m 32.808552,-4.48905 c 0.0767,-0.0307 0.16832,-0.0269 0.20363,0.008 0.0353,0.0353 -0.0275,0.0604 -0.13945,0.0558 -0.12376,-0.005 -0.14893,-0.0303 -0.0642,-0.0642 z m -1.06241,-0.21248 c 0.0767,-0.0307 0.16832,-0.0269 0.20363,0.008 0.0353,0.0353 -0.0275,0.0604 -0.13945,0.0558 -0.12376,-0.005 -0.14893,-0.0303 -0.0642,-0.0642 z m -0.63745,-0.10624 c 0.0767,-0.0307 0.16833,-0.0269 0.20363,0.008 0.0353,0.0353 -0.0275,0.0604 -0.13944,0.0558 -0.12377,-0.005 -0.14894,-0.0303 -0.0642,-0.0642 z m -16.361113,-0.10624 c 0.07669,-0.0307 0.168326,-0.0269 0.203629,0.008 0.0353,0.0353 -0.02745,0.0604 -0.139442,0.0558 -0.123765,-0.005 -0.148939,-0.0303 -0.06419,-0.0642 z m 0.743687,-0.10625 c 0.07669,-0.0307 0.168326,-0.0269 0.203629,0.008 0.0353,0.0353 -0.02745,0.0604 -0.139442,0.0558 -0.123765,-0.005 -0.148939,-0.0303 -0.06419,-0.0642 z m 14.342536,0 c 0.0767,-0.0307 0.16832,-0.0269 0.20363,0.008 0.0353,0.0353 -0.0275,0.0604 -0.13944,0.0558 -0.12377,-0.005 -0.14894,-0.0303 -0.0642,-0.0642 z m -13.598849,-0.10624 c 0.07669,-0.0307 0.168326,-0.0269 0.203629,0.008 0.0353,0.0353 -0.02745,0.0604 -0.139442,0.0558 -0.123765,-0.005 -0.148939,-0.0303 -0.06419,-0.0642 z m 12.855159,0 c 0.0767,-0.0307 0.16833,-0.0269 0.20363,0.008 0.0353,0.0353 -0.0275,0.0604 -0.13944,0.0558 -0.12377,-0.005 -0.14894,-0.0303 -0.0642,-0.0642 z m -12.011871,-0.10402 c 0.07304,-0.0295 0.192562,-0.0295 0.265602,0 0.07304,0.0295 0.01328,0.0536 -0.132801,0.0536 -0.146081,0 -0.205842,-0.0241 -0.132801,-0.0536 z m 11.049061,0 c 0.073,-0.0295 0.19256,-0.0295 0.26561,0 0.073,0.0295 0.0133,0.0536 -0.13281,0.0536 -0.14608,0 -0.20584,-0.0241 -0.1328,-0.0536 z m -10.03775,-0.10951 c 0.103369,-0.0269 0.246795,-0.0252 0.318723,0.004 0.07193,0.0291 -0.01265,0.0511 -0.187943,0.049 -0.175298,-0.002 -0.234149,-0.026 -0.13078,-0.0529 z m 8.97534,0.003 c 0.073,-0.0295 0.19256,-0.0295 0.26561,0 0.073,0.0295 0.0133,0.0536 -0.13281,0.0536 -0.14608,0 -0.20584,-0.0241 -0.1328,-0.0536 z m -7.596229,-0.10911 c 0.102257,-0.0267 0.269587,-0.0267 0.371844,0 0.102257,0.0267 0.01859,0.0486 -0.185922,0.0486 -0.204514,0 -0.288179,-0.0219 -0.185922,-0.0486 z m 6.110099,-0.002 c 0.13215,-0.0254 0.32339,-0.0245 0.42496,0.002 0.10158,0.0266 -0.007,0.0474 -0.24028,0.0462 -0.23373,-0.001 -0.31684,-0.0229 -0.18468,-0.0483 z m -3.450195,-0.10973 c 0.338125,-0.0211 0.864015,-0.0209 1.168655,4.2e-4 0.30463,0.0214 0.028,0.0387 -0.61477,0.0384 -0.642757,-2.1e-4 -0.892005,-0.0177 -0.553885,-0.0389 z"
           id="path4181" />
      </g>
    </g>
  </g>
</svg>
