<?xml version="1.0" encoding="UTF-8" standalone="no"?>
<svg
   xmlns:dc="http://purl.org/dc/elements/1.1/"
   xmlns:cc="http://creativecommons.org/ns#"
   xmlns:rdf="http://www.w3.org/1999/02/22-rdf-syntax-ns#"
   xmlns:svg="http://www.w3.org/2000/svg"
   xmlns="http://www.w3.org/2000/svg"
   xmlns:xlink="http://www.w3.org/1999/xlink"
   xmlns:sodipodi="http://sodipodi.sourceforge.net/DTD/sodipodi-0.dtd"
   xmlns:inkscape="http://www.inkscape.org/namespaces/inkscape"
   id="f7bb3db6-0aca-42e3-bcc4-5e9b3a55e19d"
   data-name="Layer 1"
   width="879.5"
   height="581.35056"
   viewBox="0 0 879.5 581.35056"
   version="1.1"
   sodipodi:docname="logo-svg.svg"
   inkscape:version="1.0.2 (e86c870879, 2021-01-15, custom)">
  <metadata
     id="metadata993">
    <rdf:RDF>
      <cc:Work
         rdf:about="">
        <dc:format>image/svg+xml</dc:format>
        <dc:type
           rdf:resource="http://purl.org/dc/dcmitype/StillImage" />
        <dc:title>Mobile_application</dc:title>
      </cc:Work>
    </rdf:RDF>
  </metadata>
  <defs
     id="defs991">
    <marker
       style="overflow:visible"
       id="Arrow1Lstart"
       refX="0.0"
       refY="0.0"
       orient="auto"
       inkscape:stockid="Arrow1Lstart"
       inkscape:isstock="true">
      <path
         transform="scale(0.8) translate(12.5,0)"
         style="fill-rule:evenodd;stroke:#000000;stroke-width:1.0pt"
         d="M 0.0,0.0 L 5.0,-5.0 L -12.5,0.0 L 5.0,5.0 L 0.0,0.0 z "
         id="path1841" />
    </marker>
    <linearGradient
       inkscape:collect="always"
       id="linearGradient1189">
      <stop
         style="stop-color:#00b4d8;stop-opacity:1"
         offset="0"
         id="stop1185" />
      <stop
         style="stop-color:#27fb6b;stop-opacity:1"
         offset="1"
         id="stop1187" />
    </linearGradient>
    <linearGradient
       inkscape:collect="always"
       xlink:href="#linearGradient1189"
       id="linearGradient1191"
       x1="506.06662"
       y1="502.20352"
       x2="507.35431"
       y2="96.577591"
       gradientUnits="userSpaceOnUse" />
  </defs>
  <sodipodi:namedview
     pagecolor="#ffffff"
     bordercolor="#666666"
     borderopacity="1"
     objecttolerance="10"
     gridtolerance="10"
     guidetolerance="10"
     inkscape:pageopacity="0"
     inkscape:pageshadow="2"
     inkscape:window-width="1920"
     inkscape:window-height="1057"
     id="namedview989"
     showgrid="false"
     inkscape:snap-text-baseline="false"
     inkscape:zoom="0.7765776"
     inkscape:cx="613.44784"
     inkscape:cy="187.65919"
     inkscape:window-x="-8"
     inkscape:window-y="-8"
     inkscape:window-maximized="1"
     inkscape:current-layer="f7bb3db6-0aca-42e3-bcc4-5e9b3a55e19d" />
  <title
     id="title914">Mobile_application</title>
  <rect
     style="opacity:1;fill:url(#linearGradient1191);fill-opacity:1;stroke-width:1.00157475;stroke-miterlimit:4;stroke-dasharray:none;paint-order:normal;stroke:#00b4d8;stroke-opacity:1;stroke-linejoin:round;stroke-linecap:round"
     id="rect1159"
     width="409.48901"
     height="409.48901"
     x="312.91141"
     y="95.289894" />
  <g
     id="g1839"
     transform="matrix(4.6813079,0,0,4.6813079,365.88036,146.07722)"
     style="fill:#abdee5;fill-opacity:0.39411765">
    <g
       id="hair"
       style="fill:#abdee5;fill-opacity:0.39411765" />
    <g
       id="skin"
       style="fill:#abdee5;fill-opacity:0.39411765">
      <path
         fill="#fcea2b"
         d="m 18.6575,19.2409 c -0.9683,-1.6927 -3.1256,-2.2799 -4.8183,-1.3115 -1.6927,0.9684 -2.2799,3.1256 -1.3115,4.8183 0.1552,0.2714 0.3458,0.5209 0.5667,0.742 l 11.5324,15.0998 2.6883,3.3878 -7.8906,-10.3314 c -0.9683,-1.6927 -3.1256,-2.2799 -4.8183,-1.3115 -1.6927,0.9684 -2.2799,3.1256 -1.3115,4.8183 0.1552,0.2714 0.3458,0.5209 0.5667,0.7421 l 7.8906,10.3312 6.2707,7.899 c 5.467,6.2731 14.5147,5.9306 20.7863,0.465 3.6045,-3.1684 5.9226,-7.5482 6.5154,-12.3105 0.3858,-4.2326 0.807,-15.301 0.807,-15.301 -0.1826,-2.6008 -3.1353,-4.5234 -3.5158,-3.1802 L 47.7217,33.5558 44.356,29.3334 47.7217,33.5558 44.356,29.3334 30.8909,12.1248 c -0.9683,-1.6927 -3.1256,-2.2799 -4.8183,-1.3115 -1.6927,0.9684 -2.2799,3.1256 -1.3115,4.8183 0.1552,0.2714 0.3458,0.5209 0.5667,0.742 L 29.5766,21.9367 36,30.4167 22.581,12.7366 c -0.9683,-1.6927 -3.1256,-2.2799 -4.8183,-1.3115 -1.6927,0.9684 -2.2799,3.1256 -1.3116,4.8183 0.1552,0.2714 0.3458,0.5209 0.5667,0.7421 L 31.6894,36"
         id="path906"
         style="fill:#abdee5;fill-opacity:0.39411765" />
    </g>
    <g
       id="skin-shadow"
       style="fill:#abdee5;fill-opacity:0.39411765" />
    <g
       id="color"
       style="fill:#abdee5;fill-opacity:0.39411765" />
    <g
       id="line"
       style="fill:#abdee5;fill-opacity:0.39411765">
      <path
         fill="none"
         stroke="#000000"
         stroke-linecap="round"
         stroke-linejoin="round"
         stroke-width="2"
         d="m 18.6575,19.2409 c -0.9683,-1.6927 -3.1256,-2.2799 -4.8183,-1.3115 -1.6927,0.9684 -2.2799,3.1256 -1.3115,4.8183 0.1552,0.2714 0.3458,0.5209 0.5667,0.742 l 11.5324,15.0998 2.6883,3.3878 -7.8906,-10.3314 c -0.9683,-1.6927 -3.1256,-2.2799 -4.8183,-1.3115 -1.6927,0.9684 -2.2799,3.1256 -1.3115,4.8183 0.1552,0.2714 0.3458,0.5209 0.5667,0.7421 l 7.8906,10.3312 6.2707,7.899 c 5.467,6.2731 14.5147,5.9306 20.7863,0.465 3.6045,-3.1684 5.9226,-7.5482 6.5154,-12.3105 0.3858,-4.2326 0.807,-15.301 0.807,-15.301 -0.1826,-2.6008 -3.1353,-4.5234 -3.5158,-3.1802 L 47.7217,33.5558 44.356,29.3334 47.7217,33.5558 44.356,29.3334 30.8909,12.1248 c -0.9683,-1.6927 -3.1256,-2.2799 -4.8183,-1.3115 -1.6927,0.9684 -2.2799,3.1256 -1.3115,4.8183 0.1552,0.2714 0.3458,0.5209 0.5667,0.742 L 29.5766,21.9367 36,30.4167 22.581,12.7366 c -0.9683,-1.6927 -3.1256,-2.2799 -4.8183,-1.3115 -1.6927,0.9684 -2.2799,3.1256 -1.3116,4.8183 0.1552,0.2714 0.3458,0.5209 0.5667,0.7421 L 31.6894,36"
         id="path911"
         style="fill:#abdee5;fill-opacity:0.39411765" />
      <path
         fill="none"
         stroke="#000000"
         stroke-linecap="round"
         stroke-linejoin="round"
         stroke-miterlimit="10"
         stroke-width="2"
         d="m 11.6726,42.8719 c 0,2.5663 1.747,4.6428 3.9059,4.6428"
         id="path913"
         style="fill:#abdee5;fill-opacity:0.39411765" />
      <path
         fill="none"
         stroke="#000000"
         stroke-linecap="round"
         stroke-linejoin="round"
         stroke-miterlimit="10"
         stroke-width="2"
         d="m 7.0614,42.4369 c 0,5.5959 3.8094,10.1241 8.5171,10.1241"
         id="path915"
         style="fill:#abdee5;fill-opacity:0.39411765" />
      <path
         fill="none"
         stroke="#000000"
         stroke-linecap="round"
         stroke-linejoin="round"
         stroke-miterlimit="10"
         stroke-width="2"
         d="m 45.2619,21.2377 c 0,-2.5663 -1.747,-4.6428 -3.9059,-4.6428"
         id="path917"
         style="fill:#abdee5;fill-opacity:0.39411765" />
      <path
         fill="none"
         stroke="#000000"
         stroke-linecap="round"
         stroke-linejoin="round"
         stroke-miterlimit="10"
         stroke-width="2"
         d="m 49.8731,21.6727 c 0,-5.5959 -3.8094,-10.1241 -8.5171,-10.1241"
         id="path919"
         style="fill:#abdee5;fill-opacity:0.39411765" />
    </g>
    <path
       style="fill:#abdee5;fill-opacity:0.39411765;stroke-width:0.0808989"
       d="M 36,57.528464 C 33.577556,57.082393 31.576353,56.075344 29.706326,54.361353 28.976582,53.692499 23.683534,47.026054 18.69261,40.489888 16.518192,37.642247 14.617605,35.16963 14.469085,34.995183 c -1.061227,-1.246479 -0.611354,-3.174125 0.901702,-3.863674 0.307384,-0.140085 0.550159,-0.184052 1.011235,-0.183132 1.13319,0.0023 0.961192,-0.166965 4.38351,4.312842 3.444839,4.509287 5.67397,7.351558 5.921651,7.55045 0.09418,0.07563 0.30314,0.159961 0.464346,0.187398 0.853366,0.145245 1.50374,-0.803488 1.054596,-1.538393 -0.266683,-0.436356 -8.083483,-10.665747 -8.531017,-11.164045 -0.23977,-0.266966 -1.504092,-1.886966 -2.809606,-3.6 -1.305514,-1.713033 -2.621508,-3.424045 -2.924431,-3.802247 -0.32358,-0.403993 -0.605909,-0.852428 -0.684443,-1.08713 -0.521571,-1.558732 0.532035,-3.145394 2.166912,-3.263229 0.901391,-0.06497 1.656482,0.28708 2.17973,1.016264 0.150482,0.209707 0.354465,0.454095 0.453296,0.543084 0.09883,0.08899 3.041044,3.875056 6.538251,8.413483 4.257516,5.525102 6.44344,8.298465 6.61544,8.393258 0.312194,0.172058 0.540574,0.178373 0.907424,0.02509 0.5953,-0.248733 0.775471,-0.983496 0.383443,-1.56373 -0.239008,-0.35375 -13.720569,-17.842388 -14.560195,-18.887871 -0.757681,-0.943445 -0.868201,-1.192759 -0.869866,-1.962257 -0.0012,-0.547129 0.0337,-0.718665 0.225614,-1.109482 0.762285,-1.552314 2.815574,-1.883684 3.956571,-0.638531 0.190713,0.208123 0.856415,1.062895 1.479336,1.899494 1.460913,1.962043 1.449292,1.946685 3.658494,4.834987 1.033295,1.350926 3.43929,4.513083 5.346655,7.027015 1.94077,2.557961 3.58576,4.650944 3.735492,4.752809 0.67145,0.456798 1.538011,-0.0386 1.538011,-0.879249 0,-0.376653 -0.03966,-0.444623 -0.996731,-1.708191 C 32.882053,24.564585 29.202336,19.71574 27.587317,17.595502 26.570555,16.26067 25.662966,15.04112 25.570453,14.885389 25.433545,14.654927 25.402247,14.46677 25.402247,13.874153 c 0,-0.654753 0.02401,-0.77143 0.238361,-1.158379 0.435337,-0.78587 1.119679,-1.227913 1.998662,-1.291012 0.914953,-0.06568 1.673323,0.296364 2.234112,1.066561 0.501964,0.689408 14.382464,18.414417 15.843939,20.232269 1.165799,1.450073 1.411531,1.713798 1.677918,1.800769 0.433294,0.141463 0.877247,0.01344 1.133602,-0.326894 0.107877,-0.143216 1.256156,-2.381939 2.551734,-4.974939 2.260081,-4.523383 2.362594,-4.710802 2.528216,-4.622163 0.341922,0.182991 0.874413,0.819875 1.155871,1.382474 0.272894,0.545483 0.287023,0.61463 0.287023,1.404602 0,0.904008 -0.249432,6.513473 -0.447719,10.068735 -0.273467,4.903236 -0.443345,6.137863 -1.133098,8.235063 -0.610519,1.856289 -1.561597,3.676008 -2.771807,5.303365 -0.689108,0.926636 -2.11153,2.421801 -2.98749,3.140272 -1.942202,1.593014 -4.37133,2.772637 -6.817189,3.310536 -1.125207,0.247462 -3.758855,0.29215 -4.894382,0.08305 z"
       id="path1490" />
  </g>
</svg>
